<?xml version="1.0" encoding="UTF-8" standalone="no"?>
<!-- Created with Inkscape (http://www.inkscape.org/) -->

<svg xmlns:dc="http://purl.org/dc/elements/1.1/" xmlns:cc="http://creativecommons.org/ns#" xmlns:rdf="http://www.w3.org/1999/02/22-rdf-syntax-ns#" xmlns:svg="http://www.w3.org/2000/svg" xmlns="http://www.w3.org/2000/svg" xmlns:xlink="http://www.w3.org/1999/xlink" xmlns:sodipodi="http://sodipodi.sourceforge.net/DTD/sodipodi-0.dtd" xmlns:inkscape="http://www.inkscape.org/namespaces/inkscape" width="1200" height="900" viewBox="0 0 1200 900" version="1.1" sodipodi:docname="musical_symbols.svg" inkscape:version="0.92.1 r15371">
  <title>Musical Symbols</title>
  <defs>
    <pattern patternUnits="userSpaceOnUse" width="71.99951" height="181.6607" patternTransform="translate(1078)" id="pat_staff">
      <use xlink:href="#ms_staff_for_pattern" />
    </pattern>
    <pattern inkscape:collect="always" xlink:href="#pat_staff" id="pattern26183" patternTransform="matrix(1.018951,0,0,1.009515,1049.258,-0.1615972)" />
    <symbol id="ms_g_clef">
      <title>G clef</title>
      <path d="m 6.561862,107.3479 c 0.2835,-3.2247 2.3293,-5.8548 5.208898,-6.6168 3.4821,-0.92097 6.2744,1.2529 7.4222,3.6533 0.9725,2.0326 0.9687,4.662 -0.1625,6.4066 -1.451,2.2356 -4.2652,3.4533 -6.4735,2.7375 -0.094,2.1521 3.2862,3.8339 6.4716,3.5875 4.4307,-0.3439 7.6573,-2.784 8.8886,-6.76 1.1369,-3.6722 0.5651,-7.5371 0.121,-10.42457 -0.2419,-1.5715 -0.8088,-6.0961 -1.3421,-8.8086 -5.6058,1.4339 -11.6666,0.2116 -16.869498,-3.6952 -5.0592,-3.7982 -8.6702,-9.9881 -9.5609998,-16.8484 -0.7797,-6.0051 0.1927,-10.7203 2.4547998,-14.9237 5.1258,-9.5233 12.628898,-15.1638 17.030798,-19.5157 -0.9441,-5.7192 -1.4365,-11.882 -0.8246,-16.8358 0.8129,-6.5809 3.7764,-15.352898 9.1513,-18.8351976 1.1939,-0.7738 2.3504,-0.6348 3.1532,0.7554996 2.5663,4.4446 4.0671,10.490398 4.5468,15.425398 0.6032,6.2072 -1.4004,13.6196 -3.7403,17.6713 -2.889,5.0033 -5.2051,7.9559 -8.8451,11.2628 0.2116,2.6264 0.9471,7.5521 1.4948,11.7645 9.9903,-0.5601 14.7961,6.5175 15.8577,13.0789 1.6554,10.2278 -5.3114,17.2317 -11.5415,19.8032 0.076,1.2922 0.7914,6.4165 1.1485,8.6129 1.0625,6.53087 1.1709,11.34217 -1.6584,15.52727 -2.262,3.3441 -5.5226,4.7981 -9.5731,4.947 -7.347,0.2721 -12.870298,-6.1606 -12.357098,-11.9697 z M 16.22496,72.91703 c -0.8414,4.1654 0.3552,6.6358 3.9284,9.0116 1.9963,1.3265 1.2287,2.7569 -1.7341,0.8283 -4.1684,-2.714 -6.3185,-7.4283 -6.0188,-12.2291 0.4021,-6.4419 5.4326,-11.1769 10.199,-12.7733 -0.4388,-3.4075 -0.8527,-6.8338 -1.3788,-10.4662 -4.0822,2.96 -8.1834,6.7464 -10.9553,10.2345 -3.750698,4.7195 -5.819598,9.5505 -5.771598,14.6151 0.087,9.2417 6.962898,15.0911 13.274298,16.7167 3.1155,0.8024 6.6368,0.6977 8.8055,-0.049 -0.531,-2.9874 -3.0803,-21.2045 -3.0803,-23.2261 -3.4775,1.0536 -6.6035,4.044 -7.2683,7.3367 z m 19.6304,1.703 c -1.4246,-6.0585 -5.6383,-8.9653 -10.1439,-9.2104 0.5855,4.1984 2.7005,20.3108 3.0724,22.789 5.3997,-2.7583 8.191,-8.8171 7.0715,-13.5786 z m -5.7328,-64.1784 c -4.2304,-0.705198 -7.7586,7.4307 -8.4676,12.209 -0.6286,4.2343 -0.567,7.8628 0.091,11.7712 4.25,-3.2479 8.1047,-7.6445 10.1691,-12.4117 1.3557,-3.1315 3.3781,-10.7064 -1.7937,-11.5684 z" inkscape:connector-curvature="0" />
    </symbol>
    <symbol id="ms_f_clef">
      <title>F clef</title>
      <path sodipodi:nodetypes="sssssssssssssssscssssssss" inkscape:connector-curvature="0" d="m 118.9608,41.61413 c 0,2.2253 -1.8036,4.0289 -4.029,4.0289 -2.2246,0 -4.0281,-1.8036 -4.0281,-4.0289 0,-2.225 1.8035,-4.0286 4.0281,-4.0286 2.2254,0 4.029,1.8036 4.029,4.0286 z m 0,-17.4999 c 0,2.2254 -1.8036,4.029 -4.029,4.029 -2.2246,0 -4.0281,-1.8036 -4.0281,-4.029 0,-2.225 1.8035,-4.0285 4.0281,-4.0285 2.2254,0 4.029,1.8035 4.029,4.0285 z m -50.0039,47.7548 c 5.7645,-3.7856 12.501,-8.2522 16.8955,-12.6545 5.4564,-5.4671 8.9396,-11.3499 10.8131,-18.1851 1.251,-4.566 1.5572,-8.866 0.9347,-13.1357 -0.7945,-5.4485 -4.0324,-9.3675 -8.813,-10.0852 -3.8362,-0.576 -8.3766,0.5586 -11.1927,2.7579 -2.0405,1.5942 -3.3901,4.7032 -2.2896,7.748 4.4379,-4.9357 11.5358,-1.7847 11.2414,4.0263 -0.1852,3.6234 -3.4443,6.0997 -7.2725,6.0997 -5.5071,0 -8.8765,-3.7859 -8.7095,-8.1104 0.3833,-9.9185 10.007,-14.7737 18.4235,-14.7737 11.6723,0 18.2883,7.1149 18.9569,17.275 0.5662,8.6006 -3.846,16.2579 -10.0017,22.5375 -6.915,7.0544 -20.1988,13.9471 -28.5065,18.0687 -0.7808,0.387 -1.1916,-1.1006 -0.4796,-1.5685 z" />
    </symbol>
    <symbol id="ms_c_clef">
      <title>C clef</title>
      <path inkscape:connector-curvature="0" d="M 68.58936,15.55633 V 87.5556 h 7.65991 V 15.55633 Z m 11.99991,0 V 87.5556 h 1.65995 V 52.1224 c 3.81996,1.4574 7.60136,9.0614 8.89466,15.5568 0.2192,-2.1875 2.0651,-9.8127 7.875,-9.8127 6.41572,0 6.09332,8.875 6.12472,14.375 0.038,3.7186 -0.06,11.0561 -7.53112,11.6873 -4.4375,0.3742 -5.3181,-1.9464 -3.0625,-3.5312 2.5697,-1.8051 1.9378,-7.6247 -2.75,-7.6247 -5.3117,0 -6.2633,6.7524 -3.25,9.6248 4.4478,4.2391 14.26582,5.7687 20.12482,0.4373 5.4935,-4.9984 7.7986,-15.488 1.5,-23.0621 -3.1649,-3.806 -9.3501,-6.178 -15.62482,-3.1249 -1.0148,-1.4921 -2.115,-3.3509 -3.1914,-5.094 1.0764,-1.74285 2.1766,-3.60161 3.1914,-5.0936 6.27472,3.05277 12.45992,0.6808 15.62482,-3.12497 6.2986,-7.57408 3.9935,-18.0638 -1.5,-23.0624 -2.5633,-2.3321 -5.884,-3.3505 -9.18162,-3.4042 -4.2398,-0.069 -8.4411,1.4572 -10.9432,3.8418 -3.0133,2.8721 -2.0617,9.62487 3.25,9.62487 4.6878,0 5.3197,-5.81987 2.75,-7.62497 -2.2556,-1.5845 -1.375,-3.906 3.0625,-3.5311 7.47102,0.6313 7.56892,7.9685 7.53112,11.68739 -0.038,5.49985 0.291,14.37488 -6.12472,14.37488 -5.8099,0 -7.6558,-7.62484 -7.875,-9.81242 -1.2933,6.49534 -5.0747,14.10147 -8.89466,15.55854 V 15.55633 Z" />
    </symbol>
    <symbol id="ms_brace">
      <title>Brace</title>
      <path inkscape:connector-curvature="0" d="M 8.2503,216.6605 C 4.7055,201.8619 10.209,188.2205 14.5002,173.4109 19.95,154.6049 15.0003,138.1612 0,124.1613 c 37.5008,28.2498 28.4191,55.8664 18.7507,73.9993 -6.3091,11.8333 -1.5719,32.876 8.7499,47.2498 -9.7133,-9.4181 -15.2684,-12.1257 -19.2503,-28.7499 z m 0,-184.9986 C 4.7055,46.4608 10.209,60.1019 14.5002,74.9116 19.95,93.7176 15.0003,110.1614 0,124.1613 37.5008,95.9115 28.4191,68.2949 18.7507,50.1618 12.4416,38.3288 17.1788,17.286 27.5006,2.9121 17.7873,12.3304 12.2322,15.0381 8.2503,31.6619 Z M 37.6622,0 h -1.6615 v 252.1606 h 1.6615 z" sodipodi:nodetypes="ccccccsccccsccccc" />
    </symbol>
    <symbol id="ms_bracket">
      <title>Bracket</title>
      <path d="m 28.7571,634.1606 h -1.6615 v 252.1606 h 1.6615 z m -18.1617,9.75 c 4.9447,-5.0354 13.881,-15.8362 16.4998,-22.0844 v -1.3445 C 23.4147,624.5519 7.5019,636.8318 0,638.7256 V 881.7561 C 7.5019,883.6499 23.4147,895.9298 27.0952,900 v -1.3445 C 24.4764,892.4074 15.5401,881.6066 10.5954,876.5711 Z" inkscape:connector-curvature="0" />
    </symbol>
    <symbol id="ms_double_bar_line">
      <title>Double bar line</title>
      <path inkscape:connector-curvature="0" d="M 66.03313,71.99949 H 64.37148 V 0 h 1.66165 z m 7.00002,0 H 71.37149 V 0 h 1.66166 z" />
    </symbol>
    <symbol id="ms_final_bar_line">
      <title>Final bar line</title>
      <path inkscape:connector-curvature="0" d="M 78.03313,71.99949 H 70.37151 V 0 h 7.66162 z m -11.99999,0 H 64.37148 V 0 h 1.66166 z" />
    </symbol>
    <symbol id="ms_repeat_sign_a">
      <title>Repeat sign A</title>
      <path d="m 18.58639,40.4499 a 2.540711,2.540711 0 0 0 2.5407,2.5407 2.540711,2.540711 0 0 0 2.54073,-2.5407 2.540711,2.540711 0 0 0 -2.54073,-2.5407 2.540711,2.540711 0 0 0 -2.5407,2.5407 z m 0,-17.5643 a 2.540711,2.540711 0 0 0 2.5407,2.5407 2.540711,2.540711 0 0 0 2.54073,-2.5407 2.540711,2.540711 0 0 0 -2.54073,-2.5408 2.540711,2.540711 0 0 0 -2.5407,2.5408 z M 0,71.9995 H 7.6616 V 0 H 0 Z m 12.00001,0 h 1.66166 V 0 h -1.66166 z" inkscape:connector-curvature="0" />
    </symbol>
    <symbol id="ms_repeat_sign_b">
      <title>Repeat sign B</title>
      <path d="m 10.00586,0 v 71.998 h 1.66211 V 0 Z m 6,0 v 71.998 h 7.66211 V 0 Z M 2.54101,20.3437 A 2.540711,2.540711 0 0 0 2.978196e-8,22.8847 2.540711,2.540711 0 0 0 2.54101,25.4258 2.540711,2.540711 0 0 0 5.08203,22.8847 2.540711,2.540711 0 0 0 2.54101,20.3437 Z m 0,17.5645 A 2.540711,2.540711 0 0 0 2.978196e-8,40.4492 2.540711,2.540711 0 0 0 2.54101,42.9902 2.540711,2.540711 0 0 0 5.08203,40.4492 2.540711,2.540711 0 0 0 2.54101,37.9082 Z" inkscape:connector-curvature="0" />
    </symbol>
    <symbol id="ms_common_time">
      <title>Common time</title>
      <path d="m 62.16358,128.444 c -4.67864,-4.7886 -5.60311,-11.2754 -3.78782,-16.2447 1.937,-5.3019 7.52877,-10.6011 12.92249,-9.6834 5.58308,0.9498 8.85953,4.1967 9.21707,8.7752 0.0983,1.2552 -0.57902,2.7375 -1.42601,3.6431 -1.6849,1.8009 -4.51839,1.8629 -6.36127,0.1398 -1.78582,-1.6705 -1.7072,-4.4897 0.17385,-6.1991 0.6875,-0.6252 1.76276,-1.1611 2.58291,-1.2873 1.02009,-0.1588 1.15389,-0.3213 0.84623,-1.036 -0.54953,-1.2771 -3.09994,-2.3368 -5.14767,-2.2193 -3.8721,0.223 -6.10125,3.7867 -6.43385,8.5711 -0.12094,1.7503 -0.0567,9.1631 0.12095,10.2829 0.58998,3.6756 2.00804,5.8541 4.84532,6.6852 3.87058,1.1339 7.82734,-2.3584 9.18191,-7.9422 0.14362,-0.5877 0.26457,-1.1781 0.37871,-1.7711 0.45996,-0.057 1.21549,0 1.41693,0.098 0,0.359 -0.3137,2.1335 -0.5004,2.8391 -1.42676,5.3563 -5.35593,8.7628 -10.18689,8.9548 -3.07878,0.1209 -6.14547,-1.8705 -7.84246,-3.6072 z" inkscape:connector-curvature="0" sodipodi:nodetypes="ssssssssssssssccsss" />
    </symbol>
    <symbol id="ms_cut_time">
      <title>Cut time</title>
      <path d="m 22.68555,20.68383 c 0.1867,-0.7056 0.5,-2.48084 0.5,-2.83984 -0.20144,-0.098 -0.95606,-0.15466 -1.41602,-0.0977 -0.11414,0.593 -0.23529,1.18379 -0.37891,1.77149 -1.34565,5.54704 -5.25935,9.02501 -9.10546,7.95898 V 2.162109 c 0.4369,-0.130941 0.90057,-0.213965 1.39062,-0.242187 2.04773,-0.1175 4.59891,0.943603 5.14844,2.220703 0.30766,0.7147 0.17243,0.876356 -0.84766,1.035156 -0.82015,0.1262 -1.89453,0.66191 -2.58203,1.28711 -1.88105,1.7094 -1.95965,4.528719 -0.17383,6.199219 1.84288,1.7231 4.67643,1.66223 6.36133,-0.13867 0.84699,-0.9056 1.52408,-2.38933 1.42578,-3.644534 C 22.65027,4.300406 19.3741,1.053316 13.79102,0.1035156 13.2899,0.0182554 12.7866,0.0044043 12.28516,0.0214844 V -9.625 H 10.64258 V 0.2363281 C 6.356279,1.259035 2.428461,5.518984 0.8691406,9.787109 -0.9460171,14.75605 -0.0215022,21.24275 4.65625,26.03125 c 1.353079,1.38474 3.579857,2.91314 5.98633,3.42187 v 9.1211 h 1.64258 v -8.94531 c 4.83096,-0.192 8.97363,-3.58878 10.40039,-8.94508 z M 10.64258,2.972656 V 26.75781 C 8.835276,25.65189 7.831569,23.69284 7.363281,20.77539 7.185631,19.65559 7.121247,12.24249 7.242188,10.49219 7.474912,7.144487 8.639643,4.398794 10.64258,2.972656 Z" transform="translate(57.50754,102.4117)" inkscape:connector-curvature="0" sodipodi:nodetypes="cccccccccccccccccccccccccccccc" />
    </symbol>
    <symbol id="ms_flat">
      <title>Flat</title>
      <path sodipodi:nodetypes="ccsscsssccccs" inkscape:connector-curvature="0" d="M 2.0953,38.71643 V 28.19384 c 0.2105,-1.00754 1.769,-2.84398 2.851,-2.91407 2.4343,-0.15691 3.6493,2.88268 2.5364,5.99006 -0.8693,2.42708 -3.5106,5.58538 -5.3874,7.4466 z m 7.772,-4.84453 c 0.9701,-0.92719 3.0031,-3.44061 2.6375,-6.55128 -0.3761,-3.19969 -3.1534,-4.55195 -4.8871,-4.55195 -1.6603,0 -3.3634,0.79983 -5.5224,2.40315 V 0 L 0,0.23079 v 42.5688 c 4.1779,-3.83027 6.2686,-5.4861 9.8673,-8.92586 z" />
    </symbol>
    <symbol id="ms_sharp">
      <title>Sharp</title>
      <path inkscape:connector-curvature="0" d="M 11.5371,0 9.3619,0.2396 V 13.679 L 5.195,14.78403 V 1.90413 L 3.0199,2.14373 V 15.36065 L 0,16.16076 v 5.56007 L 3.0199,20.92072 V 32.79526 L 0,33.59537 v 5.55771 l 3.0199,-0.8002 v 12.4484 l 2.1751,-0.2397 v -12.7878 l 4.1669,-1.1049 v 12.2278 l 2.1752,-0.2397 v -12.5649 l 3.0372,-0.8049 v -5.55766 l -3.0372,0.80493 V 18.65991 l 3.0372,-0.80493 v -5.55766 l -3.0372,0.80493 z M 9.3619,19.23704 V 31.1093 L 5.195,32.2142 V 20.33966 Z" sodipodi:nodetypes="cccccccccccccccccccccccccccccccccc" />
    </symbol>
    <symbol id="ms_natural">
      <title>Natural</title>
      <path sodipodi:nodetypes="cccccccccccccc" inkscape:connector-curvature="0" d="m 2.048,28.05156 6.903,-1.82863 v -10.159 L 2.048,17.89255 Z M 8.951,31.02458 0,33.39588 V 0.22557 L 2.048,0 v 13.08909 l 8.9509,-2.37129 v 32.67748 l -2.0479,0.2254 z" />
    </symbol>
    <symbol id="ms_double_sharp">
      <title>Double sharp</title>
      <path inkscape:connector-curvature="0" d="M 0,0 1.9375,6.5 C 3.5786,6.5 5.0903,7.0374 6.3202,7.9373 5.0903,8.8376 3.5785,9.375 1.9375,9.375 L 0,15.875 6.4999,13.9373 c 0,-1.6411 0.5371,-3.1525 1.4375,-4.3828 0.9002,1.2303 1.4375,2.7421 1.4375,4.3828 l 6.5,1.9377 -1.9375,-6.5 C 12.2961,9.375 10.7847,8.838 9.5546,7.9373 10.7846,7.0374 12.2964,6.5 13.9374,6.5 l 1.9375,-6.5 -6.5,1.9373 c 0,1.6411 -0.5373,3.1529 -1.4375,4.3831 C 7.0371,5.0902 6.4999,3.5784 6.4999,1.9373 Z" />
    </symbol>
    <symbol id="ms_note_w">
      <title>note W</title>
      <path d="M 0,0 V 17.71484 H 1.541 V 0 Z m 3.5,0 v 17.71484 h 1.541 c 0,-5.90495 0,-11.80989 0,-17.71484 z m 1.541,8.86914 c 3e-4,5.1192 5.6139,8.8672 12.5391,8.8672 6.9252,0 12.5387,-3.74802 12.539,-8.8672 C 30.1194,3.74959 24.5056,0 17.5801,0 10.6546,0 5.0407,3.74956 5.041,8.86914 Z m 25.0781,8.8457 h 1.541 V 0 h -1.541 c 0,5.90495 0,11.80989 0,17.71484 z M 33.6191,0 v 17.71484 h 1.541 V 0 Z M 16.6152,0.88282 c 2.7671,0.0534 5.4747,2.77381 6.4746,6.50585 1.1609,4.33317 -0.3639,8.50701 -3.4062,9.32227 -3.0423,0.81524 -6.4502,-2.03595 -7.6113,-6.36914 -1.1611,-4.3332 0.3638,-8.50696 3.4062,-9.32227 0.3677,-0.0985 0.7487,-0.14421 1.1367,-0.13671 z" inkscape:connector-curvature="0" sodipodi:nodetypes="ccccccccccasasaccccccccccssssss" />
    </symbol>
    <symbol id="ms_note_1">
      <title>note 1</title>
      <path d="M 12.5393,0 C 5.6138,0 -2.99988e-4,3.97046 1.202272e-8,8.86799 2.00012e-4,13.76524 5.6141,17.73538 12.5393,17.73538 c 6.9252,0 12.5392,-3.97014 12.5394,-8.86739 C 25.0789,3.97046 19.4648,0 12.5393,0 Z m 5.5091,7.38841 c 1.1608,4.3332 -0.3644,8.50597 -3.4067,9.32137 -3.0423,0.8151 -6.4499,-2.03614 -7.611,-6.36933 -1.1611,-4.3332 0.3641,-8.50662 3.4066,-9.32166 0.3676,-0.0988 1.1362,-0.13644 1.1362,-0.13644 2.7676,0 5.4749,2.77405 6.4749,6.50606 z" inkscape:connector-curvature="0" sodipodi:nodetypes="sssssssssss" />
    </symbol>
    <symbol id="ms_note_2">
      <title>note 2</title>
      <path d="m 20.53923,0 v 55.94144 c -1.6288,-1.43132 -4.1425,-2.16132 -6.9121,-2.11522 -2.0181,0.034 -4.168603,0.4651 -6.207003,1.32612 -5.9301,2.5051 -8.6582,7.6636 -6.8867,11.8574 1.7716,4.1941 7.3707,5.8349 13.300703,3.3301 5.6504,-2.3867 9.5508,-7.6734 8.375,-11.7949 V 0.43554 Z m -4.0703,56.94924 c 1.5823,0 2.7223,0.4236 3.2324,1.1895 1.2483,1.8741 -1.5143,5.2958 -6.1699,7.6406 -4.655603,2.3448 -9.441303,2.7254 -10.689503,0.8515 -1.2484,-1.8742 1.5143,-5.2941 6.17,-7.6386 2.572503,-1.2956 5.317703,-2.0463 7.457003,-2.043 z" inkscape:connector-curvature="0" sodipodi:nodetypes="ccsssscccssssss" />
    </symbol>
    <symbol id="ms_note_4">
      <title>note 4</title>
      <path d="m 20.53757,0 v 55.93552 c -2.8168,-2.4709 -8.2854,-2.82315 -13.119201,-0.7812 -5.93,2.50505 -8.6563,7.66359 -6.8846997,11.85738 1.7714997,4.1937 7.3705997,5.8351 13.3008007,3.3301 5.6522,-2.3875 9.5529,-7.67858 8.373,-11.80078 V 0.43555 Z" inkscape:connector-curvature="0" sodipodi:nodetypes="ccsssccc" />
    </symbol>
    <symbol id="ms_note_8">
      <title>note 8</title>
      <path d="m 20.53754,0 v 55.93554 c -2.8167,-2.471 -8.28539,-2.82308 -13.119102,-0.7812 -5.930091,2.50502 -8.656324,7.66368 -6.8847995,11.85738 1.7715755,4.1938 7.3707085,5.8351 13.3008015,3.3301 5.65231,-2.3877 9.553,-7.6786 8.373,-11.80078 v -39.2031 c 3.022,0.4879 5.88511,2.09979 8.0489,4.3105 4.13061,4.22019 6.82721,10.6192 5.5527,17.7285 -0.91869,5.1245 -2.5568,8.3485 -4.2012,12.4219 l 1.1817,-0.125 c 2.3638,-5.3453 6.29175,-12.90789 5.2675,-20.8379 -0.94945,-7.35089 -6.07047,-12.46993 -9.4003,-16.627 -3.44427,-4.29993 -6.0235,-7.1097 -6.6582,-16.13277 z" inkscape:connector-curvature="0" sodipodi:nodetypes="ccsssccssccsscc" />
    </symbol>
    <symbol id="ms_note_16">
      <title>note 16</title>
      <path d="m 22.20743,0 -1.6699,0.014 v 57.6269 c -2.8167,-2.471 -8.2853,-2.8231 -13.1191,-0.7812 -5.9301,2.505 -8.6563,7.66372 -6.8848002,11.85742 1.7716002,4.1938 7.3707002,5.8351 13.3008002,3.3301 5.6523,-2.3877 9.5529,-7.6787 8.373,-11.80082 V 29.3343 c 2.5917,1.8826 6.0351,3.96098 8.5606,5.8672 3.509,2.64858 5.8753,5.05631 6.8398,9.2636 0.8452,3.68721 0.039,9.5855 -2.4961,15.0586 l 0.9903,0.012 c 2.1845,-4.7683 3.5811,-7.9002 3.2129,-14.5214 -0.118,-2.121 -0.7291,-4.1593 -1.6758,-6.1211 2.4269,-9.0583 0.7377,-15.51722 -8.5098,-25.9942 -2.1665,-2.45452 -6.9219,-4.7598 -6.9219,-12.8984 z m 0.033,13.5371 c 2.8791,1.8467 6.7711,4.66169 8.8555,7.1641 3.6722,4.40869 6.4792,7.5582 5.4883,16.2539 -2.0772,-3.4307 -5.0868,-6.6187 -8.1797,-9.5938 -2.2473,-2.1617 -5.8279,-6.9676 -6.1641,-13.8242 z" inkscape:connector-curvature="0" sodipodi:nodetypes="cccsssccssccscssccscsc" />
    </symbol>
    <symbol id="ms_note_32">
      <title>note 32</title>
      <path d="m 20.53936,0.01355 v 72.62888 c -2.8161,-2.4727 -8.2842,-2.82562 -13.119105,-0.7832 -5.9301,2.50508 -8.6584,7.66357 -6.8868,11.85737 1.7715,4.1937 7.3708,5.8332 13.300805,3.3282 5.6496,-2.3866 9.5495,-7.6717 8.375,-11.79297 v -30.918 c 2.5916,1.88264 6.0351,3.96096 8.5606,5.86717 3.5089,2.64849 5.8753,5.05641 6.8398,9.2637 0.8452,3.68721 0.039,9.5856 -2.496,15.0586 l 0.9902,0.012 c 2.1844,-4.7682 3.5812,-7.9004 3.2129,-14.5215 -0.118,-2.1218 -0.7304,-4.1605 -1.6778,-6.123 1.3428,-5.01294 1.4122,-9.23592 -0.3515,-13.77737 2.9072,-9.71205 1.4995,-16.27514 -8.1563,-27.21485 C 26.96466,10.44404 22.20926,8.13879 22.20926,0 Z m 1.6699,13.50192 c 2.882,1.84636 6.795,4.67426 8.8867,7.18555 3.8396,4.60966 6.7395,7.83399 5.3341,17.4707 -1.5282,-3.10089 -3.89,-6.41133 -7.2989,-10.27344 -2.1665,-2.45453 -6.9219,-4.75979 -6.9219,-12.89843 z m 0.033,15.02149 c 2.879,1.84672 6.7692,4.66168 8.8535,7.16406 3.6723,4.40882 6.4812,7.55831 5.4903,16.25388 -2.0771,-3.43059 -5.0868,-6.61862 -8.1797,-9.59372 -2.2473,-2.16171 -5.8279,-6.96768 -6.1641,-13.82422 z" inkscape:connector-curvature="0" sodipodi:nodetypes="ccsssccssccsccscccscssccscsc" />
    </symbol>
    <symbol id="ms_note_2r">
      <title>note 2r</title>
      <path d="M 13.94155,9.83001e-4 C 12.25975,0.022583 10.43715,0.399813 8.58405,1.182623 2.93175,3.570253 -0.9688498,8.861213 0.2110502,12.9834 V 71.08889 L 1.88095,71.52439 V 15.58302 c 1.6289,1.431 4.1428,2.1612 6.9121,2.1152 2.0181,-0.033 4.1686,-0.467 6.2071,-1.3281 5.93,-2.505 8.6562,-7.661637 6.8847,-11.855467 -1.218,-2.88342 -4.2434,-4.56119 -7.9433,-4.513669999 z M 16.87515,3.719723 c 1.2696,0.0838 2.2351,0.46917 2.7031,1.17188 1.2484,1.87426 -1.5142,5.296077 -6.1699,7.640617 -2.5726,1.2956 -5.3197,2.0443 -7.459,2.041 -1.5823,0 -2.7204,-0.4236 -3.2305,-1.1894 -1.2484,-1.87418 1.5143,-5.293907 6.1699,-7.638697 2.9098,-1.46551 5.8703,-2.16507 7.9864,-2.0254 z" inkscape:connector-curvature="0" sodipodi:nodetypes="ssccccsssssssssss" />
    </symbol>
    <symbol id="ms_note_4r">
      <title>note 4r</title>
      <path d="m 13.93982,0.0010002 c -1.6818,0.0218 -3.5023,0.39884 -5.355498,1.1815998 -5.6495,2.38624 -9.5493995,7.6736 -8.3749995,11.7949 v 58.10942 l 1.6699995,0.4375 V 15.5849 c 2.8161,2.4727 8.284098,2.82764 13.119098,0.7852 5.9301,-2.50506 8.6583,-7.66359 6.8867,-11.8574 -1.2179,-2.88319 -4.2453,-4.5596198 -7.9453,-4.5116998 z" inkscape:connector-curvature="0" sodipodi:nodetypes="ssccccsss" />
    </symbol>
    <symbol id="ms_note_8r">
      <title>note 8r</title>
      <path d="m 8.582844,1.182627 c -5.8237,2.46 -9.7871,8.0016 -8.2500003,12.171803 v 58.16989 l 1.4609003,-0.076 c 0.6347,-9.0231 3.214,-11.83289 6.6582,-16.13279 3.329796,-4.1571 8.450896,-9.2761 9.400396,-16.627 1.0243,-7.93 -2.9057,-15.4926 -5.2695,-20.8379 l -1.1797,-0.125 c 1.6443,4.0734 3.2824,7.2974 4.2012,12.4219 1.2745,7.1093 -1.4222,13.5083 -5.5528,17.7285 -2.163696,2.2107 -5.026796,3.8226 -8.048796,4.3106 v -36.4981 c 2.8499,2.378 8.229896,2.695 12.996096,0.6817 5.9301,-2.505 8.6563,-7.663803 6.8847,-11.857503 -1.2179,-2.8832 -4.2453,-4.5593398 -7.9453,-4.5117398026 C 12.25644,0.0225872 10.43594,0.3998072 8.582844,1.182627 Z" inkscape:connector-curvature="0" sodipodi:nodetypes="scccssccssccssss" />
    </symbol>
    <symbol id="ms_note_16r">
      <title>note 16r</title>
      <path d="M 8.596,1.184422 C 3.6248,3.284342 0.0154,7.628562 0.014,11.44721 L 0,72.61996 l 1.6699,0.012 c 0,-8.1386 4.7554,-10.442 6.9219,-12.8965 9.2474,-10.47697 10.9367,-16.9378 8.5097,-25.996 0.9468,-1.9619 1.5579,-3.9983 1.6758,-6.1192 0.3016,-5.4223 -0.5904,-8.5131 -2.1191,-12.0703 4.7666,-2.6977 6.8354,-7.256218 5.2383,-11.037098 C 20.6785,1.629602 17.6511,-0.0464881 13.9513,9.819108e-4 12.2697,0.0225819 10.4492,0.4016019 8.596,1.184422 Z M 1.6702,15.36606 c 2.7394,2.664 8.3713,3.10356 13.3418,1.0039 0.2501,-0.10564 0.486,-0.2231 0.7246,-0.3379 1.5873,4.5631 2.03,9.10039 1.334,12.1367 -0.9645,4.20729 -3.3308,6.61512 -6.8398,9.2637 -2.5255,1.90622 -5.969,3.9826 -8.5606,5.8652 z m 14.375,20.3105 c 0.9913,8.6965 -1.814,11.84694 -5.4863,16.2559 -2.0844,2.50244 -5.9764,5.3155 -8.8555,7.1621 0.3363,-6.8563 3.9168,-11.66055 6.1641,-13.8222 3.0926,-2.97485 6.1006,-6.1655 8.1777,-9.5958 z" inkscape:connector-curvature="0" sodipodi:nodetypes="ssccscscssscscsscccscsc" />
    </symbol>
    <symbol id="ms_note_32r">
      <title>note 32r</title>
      <path d="m 0,87.62001 1.6699,0.012 c 0,-8.1386 4.7554,-10.442 6.9219,-12.89651 9.6558,-10.93968 11.0635,-17.50475 8.1563,-27.21679 1.7634,-4.54121 1.6943,-8.76467 0.3515,-13.77735 0.9474,-1.96257 1.5598,-4.00127 1.6778,-6.12304 C 19.079,22.19593 18.1851,19.10726 16.6563,15.54996 21.4236,12.85222 23.4939,8.294142 21.8965,4.512852 20.6786,1.629702 17.6512,-0.0464881 13.9513,9.818545e-4 12.2697,0.0225819 10.4492,0.4015919 8.596,1.184422 3.6248,3.284352 0.0074,7.628572 0.007,11.45005 Z M 1.6703,15.36606 c 2.7393,2.66405 8.3693,3.10359 13.3398,1.00391 0.2506,-0.10586 0.4875,-0.2228 0.7266,-0.33789 1.5872,4.56306 2.0299,9.10037 1.3339,12.13672 -0.9645,4.20729 -3.3309,6.61518 -6.8398,9.26367 -2.5255,1.90623 -5.9689,3.98259 -8.5605,5.86523 z m 14.375,20.31055 c 0.9912,8.69645 -1.8159,11.84686 -5.4883,16.25586 -2.0843,2.50239 -5.9745,5.31538 -8.8535,7.16211 0.3362,-6.8563 3.9167,-11.66255 6.164,-13.82422 3.0927,-2.97485 6.1006,-6.16345 8.1778,-9.59375 z M 15.891,49.45981 C 17.2966,59.0968 14.3965,62.3228 10.557,66.9325 8.4652,69.4439 4.5522,72.2697 1.6703,74.1161 v -1.4844 c 0,-8.1386 4.7553,-10.44199 6.9218,-12.8965 3.4095,-3.86276 5.7708,-7.17404 7.2989,-10.27539 z" inkscape:connector-curvature="0" sodipodi:nodetypes="ccsccscssssccscsscccscsccscssc" />
    </symbol>
    <symbol id="ms_dot_of_note">
      <title>Dot of note</title>
      <path sodipodi:nodetypes="sssss" inkscape:connector-curvature="0" d="m 6.5333,3.26663 c 0,1.80395 -1.4625,3.26662 -3.2666,3.26662 C 1.4625,6.53325 0,5.07058 0,3.26663 0,1.46229 1.4625,0 3.2667,0 5.0708,0 6.5333,1.46229 6.5333,3.26663 Z" />
    </symbol>
    <symbol id="ms_scale_bar">
      <title>Scale bar</title>
      <path sodipodi:nodetypes="ccccc" inkscape:connector-curvature="0" d="M 0,0 H 38.4997 V 1.6618 H 0 Z" />
    </symbol>
    <symbol id="ms_rest_w">
      <title>rest W</title>
      <path d="m 0.6896,0 h 25.4113 c 0.382,0 0.6896,0.29628 0.6896,0.66304 V 17.613 c 0,0.36778 -0.3077,0.66326 -0.6896,0.66326 H 0.6896 C 0.3076,18.27626 0,17.97996 0,17.613 V 0.66324 C 0,0.29568 0.3076,2e-4 0.6896,2e-4 Z" inkscape:connector-curvature="0" sodipodi:nodetypes="cssssssscc" />
    </symbol>
    <symbol id="ms_rest_1_2">
      <title>rest 1_2</title>
      <path sodipodi:nodetypes="cssssssscc" inkscape:connector-curvature="0" d="m 0.6896,0 h 25.4113 c 0.382,0 0.6896,0.1459 0.6896,0.3265 v 8.3466 c 0,0.1811 -0.3077,0.3266 -0.6896,0.3266 H 0.6896 C 0.3076,8.9997 0,8.8538 0,8.6731 V 0.3266 C 0,0.1456 0.3076,10e-5 0.6896,10e-5 Z" />
    </symbol>
    <symbol id="ms_rest_4">
      <title>rest 4</title>
      <path sodipodi:nodetypes="sssssssssscsssczs" inkscape:connector-curvature="0" d="m 5.177077,1.106707 c 2.2944,2.91453 8.318203,10.172043 9.797903,14.882763 0.5286,1.68287 -0.232,4.35687 -2.4024,6.77535 -1.7728,1.97524 -2.621603,4.42972 -1.7523,7.67346 0.9959,3.71718 6.9451,10.47985 8.3094,12.34008 1.4321,1.95324 0.014,2.74551 -1.9844,1.24047 -3.1133,-2.34322 -7.275503,-3.41855 -9.985203,-1.35923 -2.6646,2.02549 -2.637,4.15367 1.2309,10.85292 0.8475,1.46796 0.1196,2.23642 -1.0358,1.22368 C 4.553677,52.28292 0.2470767,45.94477 0.0300767,43.46045 -0.5523233,36.78911 7.471477,34.90291 11.25418,37.19732 8.466677,33.90745 4.985277,30.26516 3.874777,29.19817 c -1.4524,-1.39632 -1.8513,-4.25926 -0.496,-5.95337 1.4882,-1.86034 3.2834,-5.62658 3.8447,-7.75138 0.8681,-3.28661 -0.6201,-7.441373 -1.6743,-9.983933 -0.5692,-0.98581 -1.4417,-2.30589 -2.2944,-3.78267 -0.8527,-1.4769001 0.2868,-2.6980301 1.9223,-0.62011 z" />
    </symbol>
    <symbol id="ms_rest_8">
      <title>rest 8</title>
      <path sodipodi:nodetypes="sscsssssscsss" inkscape:connector-curvature="0" d="m 2e-4,5.81586 c -5e-4,3.21323 2.6048,5.77537 5.8178,5.81773 3.6589,0.0471 7.3755,-1.44429 9.7201,-3.41674 -1.1447,7.64718 -5.9436,20.69543 -7.9209,25.29558 -0.4601,1.06988 3.9207,0.89405 4.1213,-0.0684 C 12.9528,27.61857 17.1242,11.79436 18.7512,8.2558 19.4315,6.77621 20.4525,3.94266 20.9335,3.07068 21.191,2.60382 20.784,2.04686 20.1171,2.80587 19.0444,4.02693 17.9417,4.84018 17.287,5.20697 15.4397,6.24178 13.0989,7.3343 11.4453,7.25339 11.5677,6.78383 11.6333,6.30072 11.6333,5.81548 11.6333,2.60382 9.0294,5.600903e-4 5.8177,9.031955e-8 2.6053,-5.599097e-4 6e-4,2.60304 0,5.81548 Z" />
    </symbol>
    <symbol id="ms_rest_16">
      <title>rest 16</title>
      <path d="M 10.3734,8.761565e-8 C 7.2942,-5.399124e-4 4.7974,2.49512 4.7969,5.57439 c -5e-4,3.08002 2.4967,5.53594 5.5765,5.57655 3.5071,0.0451 7.0698,-1.38442 9.3173,-3.2751 -0.4261,2.84595 -2.3343,10.22951 -3.9995,15.24027 -1.5945,0.82659 -3.3842,1.56553 -4.7204,1.50011 0.1173,-0.45019 0.1802,-0.91306 0.1802,-1.3783 0,-3.07861 -2.496,-5.57386 -5.5745,-5.57461 C 2.4972,17.66288 6.000751e-4,20.15844 7.507097e-8,23.23792 -4.999249e-4,26.31816 2.4967,28.77397 5.5765,28.81458 c 3.3889,0.0451 6.9614,-1.29473 9.227,-3.09034 -2.4346,7.08406 -8.3857,22.23232 -9.418,24.6341 -0.441,1.02553 3.4986,1.14273 3.7931,0.24771 L 24.8621,2.9436 C 25.0218,2.45814 24.7187,1.96211 24.0795,2.68977 23.0514,3.8602 21.9944,4.63974 21.3668,4.99132 19.5961,5.98323 17.3524,7.03045 15.7672,6.9529 15.8846,6.50282 15.9474,6.03973 15.9474,5.57461 15.9474,2.49608 13.4515,7.500876e-4 10.373,2.100876e-4 Z" inkscape:connector-curvature="0" sodipodi:nodetypes="csscccsssscssssscssc" />
    </symbol>
    <symbol id="ms_rest_32">
      <title>rest 32</title>
      <path d="M 31.3672,2.98366 C 31.6174,2.5299 31.2217,1.9888 30.5737,2.72645 29.5314,3.91295 28.4599,4.70308 27.8237,5.05949 26.0287,6.06501 23.754,7.12673 22.147,7.04811 22.266,6.59184 22.3298,6.1224 22.3298,5.65089 22.3298,2.53033 19.8001,7.600143e-4 16.6796,1.434791e-8 h -6e-4 C 13.5577,-2.199857e-4 11.027,2.52957 11.0265,5.65089 c 0,3.12231 2.531,5.61194 5.6531,5.6531 3.5552,0.0457 7.167,-1.40342 9.4453,-3.32005 -0.4043,2.70121 -2.9471,10.41023 -4.4938,15.12924 -1.6015,0.82497 -3.4023,1.54999 -4.7402,1.48454 0.119,-0.45626 0.1827,-0.9257 0.1827,-1.39721 0,-3.12078 -2.5301,-5.65038 -5.6509,-5.65092 l 4e-4,-2.2e-4 c -3.1215,-5.4e-4 -5.6525,2.52938 -5.6531,5.65092 -5e-4,3.1223 2.531,5.61194 5.6531,5.6531 3.5553,0.0457 7.1668,-1.40342 9.4451,-3.32006 -0.4319,2.88503 -3.2736,10.7141 -4.9617,15.79366 -1.6163,0.83793 -3.4306,1.58701 -4.7852,1.52069 0.1189,-0.45637 0.1827,-0.92559 0.1827,-1.39721 0,-3.12089 -2.5303,-5.65037 -5.651,-5.65114 C 2.5314,35.7989 5.001066e-4,38.32871 1.066341e-7,41.45047 -5.998934e-4,44.57299 2.5309,47.06252 5.653,47.10368 c 3.4354,0.0457 7.057,-1.3125 9.3537,-3.13276 -2.4681,7.18131 -7.3275,21.54883 -8.3741,23.98358 -0.447,1.03955 3.6503,1.18615 3.8453,0.25108 1.1798,-5.66069 20.422,-64.37473 20.8893,-65.22192 z" inkscape:connector-curvature="0" sodipodi:nodetypes="ccccscccccccsccsccccscsccccc" />
    </symbol>
    <symbol id="ms_tie_b">
      <title>tie B</title>
      <path sodipodi:nodetypes="ccsccsc" inkscape:connector-curvature="0" d="m 1.180815,0.4736141 c -1.2737004,-0.9165 -1.5634004,-0.3588 -0.6413004,0.4548 C 8.550815,7.975514 21.30541,11.81361 35.22861,11.81361 c 13.9233,0 26.6776,-3.838096 34.6888,-10.8851959 0.9222,-0.8112 0.6329,-1.3707 -0.641,-0.4548 -8.5243,6.1341999 -20.6393,9.3601999 -34.0478,9.3601999 -13.4084,0 -25.523295,-3.226 -34.047795,-9.3601999 z" />
    </symbol>
    <symbol id="ms_tie_t">
      <title>tie T</title>
      <path d="M 1.180815,11.34 C -0.0928854,12.2565 -0.3825854,11.6988 0.5395146,10.8852 8.550815,3.8381 21.30541,0 35.22861,0 c 13.9233,0 26.6776,3.8381 34.6888,10.8852 0.9222,0.8112 0.6329,1.3707 -0.641,0.4548 -8.5243,-6.1342 -20.6393,-9.3602 -34.0478,-9.3602 -13.4084,0 -25.523295,3.226 -34.047795,9.3602 z" inkscape:connector-curvature="0" sodipodi:nodetypes="ccsccsc" />
    </symbol>
    <symbol id="staff">
      <title>Staff</title>
      <path sodipodi:nodetypes="ccccccccccccccccccccccccc" inkscape:connector-curvature="0" d="M 0,72.16159 V 70.4997 h 71.9995 v 1.66189 z M 0,54.5366 v -1.6618 h 71.9995 v 1.6618 z M 0,36.9117 v -1.6619 h 71.9995 v 1.6619 z m 0,-17.625 v -1.6618 h 71.9995 v 1.6618 z M 0,1.6618 V 0 h 71.9995 v 1.6618 z" />
    </symbol>
    <symbol id="ms_bar_line">
      <title>Bar line</title>
      <path d="M 1.66166,828.0005 H 0 V 900 h 1.66166 z" inkscape:connector-curvature="0" sodipodi:nodetypes="ccccc" />
    </symbol>
    <symbol id="ms_staff_with_bar_line">
      <title>Staff with bar line</title>
      <path d="M 323.9977,0 0,0.0113 V 1.6734 H 322.3355 V 17.6362 H 0 v 1.6621 H 322.3355 V 35.2611 H 0 v 1.6621 H 322.3355 V 52.8858 H 0 v 1.6623 H 322.3355 V 70.5108 H 0 v 1.66219 l 323.9977,-0.094 z" inkscape:connector-curvature="0" sodipodi:nodetypes="ccccccccccccccccccccc" />
    </symbol>
    <symbol id="ms_staff_for_pattern">
      <title>Staff for Pattern</title>
      <path d="m 0,181.6605 v -1.6619 h 71.9995 v 1.6619 z m 0,-17.625 v -1.6618 h 71.9995 v 1.6618 z m 0,-17.6249 v -1.6619 h 71.9995 v 1.6619 z m 0,-17.6249 v -1.6618 h 71.9995 v 1.6618 z m 0,-17.6249 v -1.6615 h 71.9995 v 1.6615 z" inkscape:connector-curvature="0" sodipodi:nodetypes="ccccccccccccccccccccccccc" />
      <rect height="181.6607" width="71.99951" style="fill:none" />
    </symbol>
    <symbol id="ms_volta_bracket">
      <title>Volta bracket</title>
      <path d="M 0,54.17316 H 3.662 V 1.66211 H 323.9898 V 0 L 0,0.093 Z" inkscape:connector-curvature="0" sodipodi:nodetypes="ccccccc" />
    </symbol>
    <symbol id="ms_staccatissimo">
      <title>Staccatissimo</title>
      <path transform="matrix(1.324758,0,0,2.15273,-602.5716,-177.9536)" inkscape:transform-center-x="0.0001529371" inkscape:transform-center-y="1.522269" d="m 457.3036,86.9068 -2.4495,-4.24266 4.899,0 z" />
    </symbol>
    <symbol id="ms_accent">
      <title>Accent</title>
      <path d="M 0,0 V 2.64063 L 14.8711,7.74219 0,12.8418 v 2.64258 L 22.5761,7.74219 Z" inkscape:connector-curvature="0" />
    </symbol>
    <symbol id="ms_tenuto">
      <title>Tenuto</title>
      <rect width="22" height="2" />
    </symbol>
    <symbol id="ms_marcato">
      <title>Marcato</title>
      <path inkscape:connector-curvature="0" d="M 11.9844,0 0,35.72266 h 2.6367 l 9.3477,-27.86133 9.3477,27.86133 h 2.6367 z" />
    </symbol>
    <symbol id="ms_stopped_note">
      <title>Stopped note</title>
      <path d="M 9,0 V 9 H 0 v 2 h 9 v 9 h 2 v -9 h 9 V 9 H 11 V 0 Z" inkscape:connector-curvature="0" />
    </symbol>
    <symbol id="ms_snap_pizzicato">
      <title>Snap pizzicato</title>
      <path d="m 9,0 v 10.20117 c -5.0203,0.52669 -9,4.64018 -9,9.79687 0,5.51098 4.489,10.00198 10,10.00198 5.511,0 10,-4.491 10,-10.00198 0,-5.15652 -3.98,-9.26995 -9,-9.79687 V 0 Z M 9,12.19921 V 20 h 2 v -7.80079 c 3.9319,0.51061 7,3.72397 7,7.79883 0,4.43008 -3.5699,8.00198 -8,8.00198 -4.4302,0 -8,-3.5719 -8,-8.00198 0,-4.07508 3.0677,-7.28849 7,-7.79883 z" inkscape:connector-curvature="0" />
    </symbol>
    <symbol id="ms_open_note">
      <title>Open note</title>
      <path d="M 8,0 C 3.5936,0 0,3.59357 0,8 c 0,4.40643 3.5936,8 8,8 4.4064,0 8,-3.59357 8,-8 C 16,3.59357 12.4064,0 8,0 Z m 0,2 c 3.3256,0 6,2.67445 6,6 0,3.32555 -2.6744,6 -6,6 C 4.6744,14 2,11.32555 2,8 2,4.67445 4.6744,2 8,2 Z" inkscape:connector-curvature="0" />
    </symbol>
    <symbol id="ms_fermata">
      <title>Fermata</title>
      <path sodipodi:nodetypes="ssssssssssss" inkscape:connector-curvature="0" d="m 26.9561,21.3095 c 0,2.6006 -2.1081,4.7087 -4.7087,4.7087 -2.6006,0 -4.7088,-2.1081 -4.7088,-4.7087 0,-2.6004 2.1082,-4.7088 4.7088,-4.7088 2.6006,0 4.7087,2.1082 4.7087,4.7088 z M 1.256395,25.9791 c -0.1209,1.1221 -1.2684,1.1909 -1.25629999292,0 C 0.147495,11.5037 10.3106,0 22.2477,0 34.1853,0 43.9882,11.5131 44.4954,25.981 44.5334,27.1107 43.3298,27.1924 43.2315,25.89 42.4446,15.4741 33.364,7.2476 22.2309,7.2466 11.0978,7.2466 2.391395,15.5552 1.256395,25.9791 Z" />
    </symbol>
    <symbol id="ms_up_bow">
      <title>Up bow</title>
      <path d="M 11.9844,35.72266 0,0 H 2.6367 L 11.9844,27.86133 21.3321,0 h 2.6367 z" inkscape:connector-curvature="0" />
    </symbol>
    <symbol id="ms_down_bow">
      <title>Down bow</title>
      <path d="M 0,0 V 22 H 2 V 8 h 20 v 14 h 2 V 0 Z" inkscape:connector-curvature="0" sodipodi:nodetypes="ccccccccc" />
    </symbol>
    <symbol id="ms_segno">
      <title>Segno</title>
      <path sodipodi:nodetypes="sccccssssssccccssssssssssssssss" inkscape:connector-curvature="0" d="m 3.1164,20.73352 c 2.6394,3.31577 7.0687,6.10132 11.4722,8.38381 L 0,51.46234 h 4.1301 l 13.577,-20.79699 c 2.7774,1.31883 5.3768,2.43671 7.2675,3.31986 5.7527,2.68731 8.5008,9.83733 6.1954,12.47793 -4.2379,4.8542 -6.0358,0.6995 -6.7982,-2.6678 -0.9777,-4.32042 -8.0033,-3.87111 -8.0033,1.4641 0,4.3888 5.2391,6.8836 9.2091,6.8836 9.0127,0 14.7233,-12.34868 8.1557,-20.73026 C 31.1826,28.15727 26.8998,25.42362 22.596,23.17685 L 37.3957,0.5068995 H 33.2652 L 19.4793,21.62368 C 16.5705,20.23864 13.8408,19.07909 11.8751,18.1607 6.1223,15.47377 3.417,8.274819 5.6797,5.682819 c 4.009,-4.59196 6.0358,-0.69914 6.7982,2.66775 0.9777,4.320321 8.0015,3.871401 8.0015,-1.46409 0,-4.11432 -4.6047,-6.9749295 -8.8287,-6.8843895 C 0.7974,0.2338995 -3.0056,13.0429 3.1164,20.73352 Z M 35.84,15.49655 c -2.2517,0 -4.0768,1.82549 -4.0768,4.07713 0,2.25163 1.8251,4.07673 4.0768,4.07673 2.2515,0 4.077,-1.8251 4.077,-4.07673 0,-2.25164 -1.8255,-4.07713 -4.077,-4.07713 z M 4.0768,29.00508 C 1.8251,29.00508 0,30.83057 0,33.0822 c 0,2.25163 1.8251,4.07673 4.0768,4.07673 2.2516,0 4.0767,-1.8251 4.0767,-4.07673 0,-2.25163 -1.8251,-4.07712 -4.0767,-4.07712 z" />
    </symbol>
    <symbol id="ms_coda">
      <title>Coda</title>
      <path inkscape:connector-curvature="0" d="m 8.5001,0 v 1.375 h 7.5624 V 4.611 A 12.93924,15.59088 0 0 0 4.3555,19.0253 H 1.375 V 14.4997 H 0 v 4.5256 2.3746 4.3499 h 1.375 v -4.3499 h 2.9843 a 12.93924,15.59088 0 0 0 11.7032,14.2442 v 3.2304 H 8.5001 v 1.3749 H 25.9999 V 38.8745 H 18.4375 V 35.6362 A 12.93924,15.59088 0 0 0 30.1347,21.3999 h 2.99 v 4.3499 h 1.375 v -4.3499 -2.3746 -4.5256 h -1.375 v 4.5256 H 30.1559 A 12.93924,15.59088 0 0 0 18.4375,4.6054 V 1.375 h 7.5624 V 0 Z m 7.5624,7.0428 v 11.9825 h -5.537 a 6.752103,13.29279 0 0 1 5.537,-11.9825 z m 2.375,0 a 6.752103,13.29279 0 0 1 5.537,11.9723 h -5.537 z M 10.535,21.3901 h 5.5275 V 33.189 A 6.752103,13.29279 0 0 1 10.535,21.3901 Z m 7.9025,0 h 5.5313 a 6.752103,13.29279 0 0 1 -5.5313,11.8064 z" />
    </symbol>
    <symbol id="ms_beamed_notes_8a">
      <title>Beamed notes 8A</title>
      <path d="m 20.53749,0 v 56.0078 c -2.8167,-2.4711 -8.2853,-2.8232 -13.119099,-0.7813 -5.9301,2.505 -8.6562,7.6618 -6.8847999,11.8555 1.7715999,4.1938 7.3706999,5.8351 13.3007989,3.3301 5.6523,-2.3877 9.5529,-7.6767 8.3731,-11.7989 V 5.8847 h 48.33 v 50.1231 c -2.8166,-2.4711 -8.2853,-2.8232 -13.1191,-0.7813 -5.9302,2.505 -8.6562,7.6618 -6.8848,11.8555 1.7715,4.1938 7.3707,5.8351 13.3008,3.3301 5.652,-2.3877 9.5529,-7.6767 8.3731,-11.7989 V 0 Z" inkscape:connector-curvature="0" />
    </symbol>
    <symbol id="ms_beamed_notes_8b">
      <title>Beamed notes 8B</title>
      <path d="m 20.53752,0 v 56.0078 c -2.8166,-2.4711 -8.2853,-2.8251 -13.1191,-0.7832 -5.93,2.505 -8.6563,7.6637 -6.8848,11.8574 1.7714,4.1938 7.3707,5.8351 13.3008,3.3301 5.6496,-2.3865 9.5477,-7.6736 8.3731,-11.7949 V 5.8848 l 48.33,8.5 v 50.125 c -2.8159,-2.4728 -8.2842,-2.8277 -13.1191,-0.7852 -5.9301,2.505 -8.6582,7.6636 -6.8867,11.8574 1.7714,4.1937 7.3707,5.835 13.3008,3.3301 5.6518,-2.3878 9.5529,-7.6786 8.373,-11.8008 V 8.5 Z" inkscape:connector-curvature="0" />
    </symbol>
    <symbol id="ms_beamed_notes_8c">
      <title>Beamed notes 8C</title>
      <path d="m 72.20723,0 -51.6699,17.50004 v 56.0058 c -2.8166,-2.471 -8.2835,-2.8232 -13.117203,-0.7812 -5.9301,2.505 -8.6582,7.6616 -6.8867,11.8554 1.7714,4.1937 7.3707,5.835 13.300803,3.3301 5.6522,-2.3877 9.5529,-7.6767 8.373,-11.7988 V 23.38284 L 70.53733,5.88281 v 50.12303 c -2.8166,-2.471 -8.2854,-2.8231 -13.1191,-0.7812 -5.9301,2.505 -8.6563,7.6617 -6.8848,11.8554 1.7714,4.1938 7.3707,5.8351 13.3008,3.3301 5.6491,-2.3865 9.5475,-7.6717 8.373,-11.793 z" inkscape:connector-curvature="0" />
    </symbol>
    <symbol id="ms_beamed_notes_8ar">
      <title>Beamed notes 8Ar</title>
      <path d="m 13.93979,0.001605 c -1.6818,0.022 -3.5042,0.3989 -5.357403,1.1817 -5.6491,2.3865 -9.5473997,7.6716 -8.3729997,11.792905 v 58.6192 H 51.87929 v -56.0078 c 2.8166,2.471 8.2853,2.8251 13.1191,0.7832 5.93,-2.5051 8.6562,-7.663605 6.8848,-11.857405 -1.7715,-4.1937 -7.3708,-5.8351 -13.3008,-3.3301 -5.6523,2.3876 -9.5529,7.6766 -8.373,11.798805 v 52.7285 H 1.879287 v -50.125 c 2.816,2.4727 8.284103,2.8276 13.119103,0.7852 5.93,-2.5051 8.6582,-7.663605 6.8868,-11.857405 -1.2179,-2.8832 -4.2453,-4.5594 -7.9454,-4.5118 z" inkscape:connector-curvature="0" />
    </symbol>
    <symbol id="ms_beamed_notes_8br">
      <title>Beamed notes 8Br</title>
      <path d="M 13.93994,9.872201e-4 C 12.25814,0.0229872 10.43564,0.3997872 8.582543,1.182587 c -5.6492,2.3866 -9.5477,7.6717 -8.3731,11.793003 v 58.6191 l 51.669897,8.5 v -56.0078 c 2.8166,2.4711 8.2834,2.8251 13.1172,0.7832 5.93,-2.5051 8.6582,-7.6636 6.8867,-11.8574 -1.7714,-4.193703 -7.3706,-5.835103 -13.3007,-3.330103 -5.6523,2.387703 -9.553,7.676603 -8.3731,11.798903 v 52.7285 l -48.330097,-8.5 v -50.1231 c 2.8166,2.4711 8.285397,2.8251 13.119197,0.7832 5.9301,-2.505 8.6562,-7.663703 6.8847,-11.857403 -1.2178,-2.8832 -4.2433,-4.5592998 -7.9433,-4.5116997799 z" inkscape:connector-curvature="0" />
    </symbol>
    <symbol id="ms_beamed_notes_8cr">
      <title>Beamed notes 8Cr</title>
      <path d="M 63.93782,9.912608e-4 C 62.25582,0.0229913 60.43582,0.3997913 58.58282,1.182591 c -5.6523,2.3877 -9.5533,7.6766 -8.3734,11.798899 v 52.7285 l -48.330105,17.5 v -50.1231 c 2.8166,2.4711 8.285305,2.8251 13.119105,0.7832 5.93,-2.5051 8.6562,-7.6636 6.8848,-11.8574 -1.7715,-4.1937 -7.3707,-5.8351 -13.300805,-3.3301 -5.6491,2.3865 -9.5474998,7.6716 -8.3729998,11.793 v 58.6191 l 51.6699048,-17.5 v -56.0078 c 2.8167,2.4711 8.2855,2.8251 13.1195,0.7832 5.93,-2.505 8.656,-7.663699 6.884,-11.857399 -1.217,-2.8832 -4.245,-4.5593997 -7.945,-4.5116997392 z" inkscape:connector-curvature="0" />
    </symbol>
    <symbol id="ms_beamed_notes_16a">
      <title>Beamed notes 16A</title>
      <path d="m 20.53927,0 v 56.0078 c -2.816,-2.4727 -8.2841,-2.8256 -13.119102,-0.7832 -5.93,2.5051 -8.6582,7.6636 -6.8868001,11.8574 1.7715001,4.1937 7.3707001,5.8351 13.3008021,3.3301 5.6523,-2.3877 9.553,-7.6786 8.3731,-11.8008 V 12.3828 h 40.83 v 43.623 c -2.8166,-2.471 -8.2854,-2.8231 -13.1191,-0.7812 -5.93,2.5051 -8.6563,7.6636 -6.8848,11.8574 1.7715,4.1937 7.3708,5.8351 13.3008,3.3301 5.6493,-2.3866 9.5476,-7.6735 8.3731,-11.7949 V 0 Z m 1.668,5.8828 h 40.83 V 8.5 h -40.83 z" inkscape:connector-curvature="0" />
    </symbol>
    <symbol id="ms_beamed_notes_16b">
      <title>Beamed notes 16B</title>
      <path d="m 20.53754,0 v 56.0078 c -2.8167,-2.471 -8.2854,-2.8231 -13.1192,-0.7812 -5.9301,2.505 -8.6562,7.6617 -6.8846995,11.8554 1.7713995,4.1938 7.3707995,5.8351 13.3007995,3.3301 5.6522,-2.3876 9.5528,-7.6766 8.373,-11.7988 V 12.5195 l 40.8301,8.2305 v 43.7598 c -2.816,-2.4727 -8.2842,-2.8276 -13.1192,-0.7852 -5.9301,2.5051 -8.6582,7.6636 -6.8867,11.8574 1.7714,4.1937 7.3727,5.8351 13.3028,3.3301 5.6491,-2.3865 9.5475,-7.6716 8.373,-11.7929 V 8.5 Z m 1.6699,5.8848 40.8301,8.5 v 2.4805 L 22.20744,8.6348 Z" inkscape:connector-curvature="0" />
    </symbol>
    <symbol id="ms_beamed_notes_16c">
      <title>Beamed notes 16C</title>
      <path d="m 64.70748,0 -44.17,17.5 v 56.0078 c -2.8166,-2.471 -8.2854,-2.8251 -13.119099,-0.7832 -5.93,2.5051 -8.6562,7.6636 -6.8847997,11.8574 1.7714997,4.1937 7.3707997,5.8351 13.3007987,3.3301 5.6523,-2.3876 9.5529,-7.6766 8.3731,-11.7988 V 29.6074 l 40.83,-16.9453 v 43.3477 c -2.816,-2.4728 -8.2842,-2.8256 -13.1191,-0.7832 -5.9301,2.505 -8.6582,7.6616 -6.8867,11.8554 1.7714,4.1937 7.3707,5.835 13.3008,3.3301 5.6491,-2.3865 9.5494,-7.6716 8.375,-11.7929 z m -1.67,5.8848 v 2.8926 l -40.83,16.9453 v -2.3379 z" inkscape:connector-curvature="0" />
    </symbol>
    <symbol id="ms_beamed_notes_16ar">
      <title>Beamed notes 16Ar</title>
      <path d="m 13.93953,0.0017261 c -1.6818,0.022 -3.5023,0.3988 -5.355495,1.1815999 -5.6519,2.3877 -9.5529002,7.6766 -8.3730002,11.798904 v 58.6132 H 44.37903 v -56.0078 c 2.8166,2.4711 8.2853,2.8251 13.1191,0.7832 5.93,-2.505 8.6562,-7.663704 6.8848,-11.857404 -1.7715,-4.1937999 -7.3708,-5.8351 -13.3008,-3.3301 -5.6523,2.3877 -9.5529,7.6766 -8.3731,11.798904 v 46.2285 H 1.879035 v -43.625 c 2.816,2.4727 8.284095,2.8275 13.119095,0.7851 5.93,-2.505 8.6582,-7.663704 6.8867,-11.857404 -1.2179,-2.8832 -4.2453,-4.5593999 -7.9453,-4.5116999 z M 1.879035,63.09543 H 42.70903 v 2.6153 H 1.879035 Z" inkscape:connector-curvature="0" />
    </symbol>
    <symbol id="ms_beamed_notes_16br">
      <title>Beamed notes 16Br</title>
      <path d="M 13.93951,9.872201e-4 C 12.25771,0.0229872 10.43721,0.3997872 8.584107,1.182587 c -5.652,2.3878 -9.5529004,7.6767 -8.3731004,11.798903 v 58.6132 l 44.1680034,8.5 v -56.0078 c 2.8166,2.4711 8.2853,2.8251 13.1191,0.7832 5.93,-2.505 8.6563,-7.6637 6.8848,-11.8574 -1.7714,-4.193803 -7.3707,-5.835103 -13.3008,-3.330103 -5.6522,2.387703 -9.5529,7.676603 -8.373,11.798903 v 46.0937 L 1.879007,59.34469 v -43.7597 c 2.816,2.4727 8.284203,2.8276 13.119103,0.7851 5.93,-2.505 8.6582,-7.663603 6.8868,-11.857403 -1.2179,-2.8832 -4.2454,-4.5592998 -7.9454,-4.5116997799 z M 1.879007,63.22949 42.70911,71.45999 v 2.75 l -40.830103,-8.5 z" inkscape:connector-curvature="0" />
    </symbol>
    <symbol id="ms_beamed_notes_16cr">
      <title>Beamed notes 16Cr</title>
      <path d="M 56.43751,9.912608e-4 C 54.75571,0.0229913 52.93521,0.3997913 51.08211,1.182591 c -5.6521,2.3876 -9.5526,7.6768 -8.3731,11.798899 v 46.5058 L 1.878907,76.43259 v -43.3476 c 2.8161,2.4727 8.284203,2.8275 13.119203,0.7851 5.93,-2.505 8.6581,-7.6637 6.8867,-11.8574 -1.7715,-4.1938 -7.3708,-5.8351 -13.300803,-3.3301 -5.6519,2.3877 -9.5528003,7.6766 -8.3730003,11.7989 v 58.6132 l 44.1679033,-17.5 v -56.0078 c 2.8167,2.4711 8.2854,2.8251 13.1192,0.7832 5.93,-2.505 8.6562,-7.663699 6.8848,-11.857399 -1.218,-2.8832 -4.2453,-4.5593997 -7.9454,-4.5116997392 z M 42.70901,63.37209 v 2.3379 l -40.830103,17.5 v -2.8926 z" inkscape:connector-curvature="0" />
    </symbol>
    <symbol id="ms_beamed_notes_32a">
      <title>Beamed notes 32A</title>
      <path d="m 20.53922,0 v 56.0098 c -2.816,-2.4727 -8.2842,-2.8276 -13.119103,-0.7852 -5.93,2.505 -8.6582,7.6637 -6.8866998,11.8575 1.7713998,4.1938 7.3726998,5.835 13.3027028,3.33 5.6496,-2.3865 9.5475,-7.6716 8.373,-11.7929 V 19.3848 h 33.3282 v 36.623 c -2.8166,-2.471 -8.2853,-2.8251 -13.1192,-0.7832 -5.93,2.505 -8.6562,7.6637 -6.8847,11.8575 1.7714,4.1938 7.3706,5.835 13.3007,3.33 5.6519,-2.3876 9.553,-7.6766 8.3731,-11.7988 V 0 Z m 1.6699,5.8848 h 33.3282 V 8.5 h -33.3282 z m 0,6.5 h 33.3282 V 15.5 h -33.3282 z" inkscape:connector-curvature="0" />
    </symbol>
    <symbol id="ms_beamed_notes_32b">
      <title>Beamed notes 32B</title>
      <path d="m 20.53928,0 v 56.0098 c -2.8161,-2.4727 -8.2842,-2.8276 -13.119201,-0.7852 -5.93,2.505 -8.6581,7.6638 -6.8867005,11.8575 1.7715005,4.1938 7.3708005,5.835 13.3008015,3.33 5.6496,-2.3865 9.5494,-7.6716 8.375,-11.7929 V 19.5488 l 33.3281,8.1719 v 36.7871 c -2.8166,-2.471 -8.2854,-2.8251 -13.1191,-0.7832 -5.9301,2.505 -8.6563,7.6637 -6.8848,11.8575 1.7714,4.1938 7.3707,5.835 13.3008,3.33 5.6518,-2.3876 9.5529,-7.6766 8.373,-11.7988 V 8.5 Z m 1.6699,5.8848 33.3281,8.5 V 16.836 L 22.20918,8.6641 Z m 0,6.664 33.3281,8.1719 v 3.1153 l -33.3281,-8.1719 z" inkscape:connector-curvature="0" />
    </symbol>
    <symbol id="ms_beamed_notes_32c">
      <title>Beamed notes 32C</title>
      <path d="m 57.20718,0 -36.668,17.5 v 56.0098 c -2.816,-2.4727 -8.2841,-2.8276 -13.119101,-0.7852 -5.93,2.505 -8.6581,7.6637 -6.8867005,11.8575 1.7715005,4.1938 7.3706005,5.835 13.3007015,3.33 5.6496,-2.3865 9.5495,-7.6716 8.375,-11.7929 V 36.5469 l 33.3282,-16.8242 v 36.2851 c -2.8166,-2.471 -8.2854,-2.8251 -13.1192,-0.7832 -5.9301,2.505 -8.6562,7.6638 -6.8847,11.8575 1.7714,4.1938 7.3706,5.835 13.3007,3.33 5.6519,-2.3876 9.553,-7.6766 8.3731,-11.7988 z m -1.6699,5.8848 v 2.9531 l -33.3282,16.8242 v -2.2773 z m 0,6.8379 v 3.1152 l -33.3282,16.8242 v -3.1152 z" inkscape:connector-curvature="0" />
    </symbol>
    <symbol id="ms_beamed_notes_32ar">
      <title>Beamed notes 32Ar</title>
      <path d="M 13.9395,9.860834e-4 C 12.2577,0.0229861 10.4372,0.4017861 8.584103,1.184586 c -5.6519,2.3877 -9.5529003,7.6767 -8.3731003,11.798804 v 58.6133 H 36.879 v -56.0097 c 2.816,2.4726 8.2842,2.8256 13.1191,0.7832 5.9301,-2.5049 8.6582,-7.661804 6.8867,-11.855504 -1.7714,-4.1937999 -7.3706,-5.8351 -13.3007,-3.3301 -5.6496,2.3865 -9.5495,7.6717 -8.375,11.793004 v 39.2344 H 1.880903 v -36.6231 c 2.8167,2.471 8.285397,2.8233 13.119197,0.7813 5.93,-2.5049 8.6562,-7.661804 6.8847,-11.855504 C 20.667,1.631486 17.6395,-0.0466139 13.9395,9.860834e-4 Z M 1.880903,56.09669 H 35.2091 v 3.1153 H 1.880903 Z m 0,7 H 35.2091 v 2.6153 H 1.880903 Z" inkscape:connector-curvature="0" />
    </symbol>
    <symbol id="ms_beamed_notes_32br">
      <title>Beamed notes 32Br</title>
      <path d="M 13.93953,9.912608e-4 C 12.25773,0.0229913 10.43713,0.3997913 8.584035,1.182591 c -5.6519,2.3877 -9.5529002,7.6767 -8.3730002,11.798799 v 58.6133 l 36.6678952,8.5 v -56.0097 c 2.816,2.4726 8.2842,2.8256 13.1192,0.7832 5.93,-2.5049 8.6562,-7.6618 6.8847,-11.8555 -1.7714,-4.193799 -7.3706,-5.835099 -13.3007,-3.330099 -5.6496,2.386499 -9.5476,7.671699 -8.3731,11.792999 v 39.0703 L 1.880935,52.37399 v -36.7871 c 2.8166,2.4711 8.285395,2.8251 13.119095,0.7832 5.9301,-2.5051 8.6563,-7.663599 6.8848,-11.857399 -1.2178,-2.8832 -4.2453,-4.5593997 -7.9453,-4.5116997392 z M 1.880935,56.25879 35.20903,64.43069 v 3.1152 L 1.880935,59.37399 Z m 0,7 33.328095,8.1719 v 2.7793 l -33.328095,-8.5 z" inkscape:connector-curvature="0" />
    </symbol>
    <symbol id="ms_beamed_notes_32cr">
      <title>Beamed notes 32Cr</title>
      <path d="M 48.93953,9.912608e-4 C 47.25773,0.0229913 45.43533,0.3997913 43.58213,1.182591 c -5.6495,2.3865 -9.5475,7.6717 -8.373,11.792999 v 39.5722 L 1.880931,69.37209 v -36.2852 c 2.8166,2.471 8.285399,2.8233 13.119199,0.7813 5.9301,-2.5049 8.6562,-7.6618 6.8847,-11.8555 -1.7714,-4.1938 -7.3706,-5.8351 -13.300699,-3.3301 -5.6519,2.3877 -9.5530003,7.6767 -8.3731003,11.7988 v 58.6133 l 36.6679993,-17.5 v -56.0097 c 2.816,2.4727 8.2841,2.8275 13.1191,0.7851 5.93,-2.505 8.6581,-7.663699 6.8867,-11.857399 -1.2179,-2.8832 -4.2453,-4.5593997 -7.9453,-4.5116997392 z M 35.20913,56.43259 v 3.1152 L 1.880931,76.37209 v -3.1153 z m 0,7 v 2.2774 l -33.328199,17.5 v -2.9532 z" inkscape:connector-curvature="0" />
    </symbol>
    <symbol id="ms_numeric_0">
      <title>Numeric 0</title>
      <path d="m 15.1584,16.3662 a 3.09,5.000001 0 0 1 -3.09,5 3.09,5.000001 0 0 1 -3.09,-5 3.09,5.000001 0 0 1 3.09,-5 3.09,5.000001 0 0 1 3.09,5 z m -3.09,-15.1416 c 0.5071,0 1.1244,0.1738 1.8535,0.5234 0.8875,0.4079 1.617,1.0934 2.1875,2.0547 1.49,2.3889 2.2344,6.4957 2.2344,12.3223 0,5.3314 -0.5071,9.1634 -1.5215,11.4941 -0.5071,1.2235 -1.2194,2.1836 -2.1387,2.8828 -0.8559,0.6409 -1.7276,0.9629 -2.6152,0.9629 -0.7608,0 -1.5376,-0.2488 -2.3301,-0.7441 C 8.914,30.0506 8.2494,29.2506 7.7422,28.3183 6.4425,25.7837 5.791,21.7185 5.791,16.125 5.791,10.2984 6.5376,6.1916 8.0274,3.8027 8.5981,2.8414 9.3252,2.1559 10.2129,1.748 10.9103,1.3984 11.5295,1.2246 12.0684,1.2246 Z M 12.0684,0 C 10.6263,0 9.2797,0.2627 8.0274,0.7871 6.1679,1.6902 4.6677,2.8122 3.5293,4.1523 1.1764,6.9782 0,10.9685 0,16.125 c 0,5.2148 1.1578,9.3096 3.4727,12.2812 1.2145,1.4857 2.4283,2.5189 3.6426,3.1016 1.4042,0.8157 3.0557,1.2246 4.9531,1.2246 1.8595,0 3.4904,-0.4089 4.8945,-1.2246 1.2144,-0.5827 2.4301,-1.6159 3.6445,-3.1016 2.3528,-2.9716 3.5293,-7.0664 3.5293,-12.2812 0,-5.1565 -1.2158,-9.1468 -3.6445,-11.9727 C 19.3916,2.8122 17.9122,1.6902 16.0528,0.7871 14.8005,0.2627 13.4725,0 12.0684,0 Z" inkscape:connector-curvature="0" />
    </symbol>
    <symbol id="ms_numeric_1">
      <title>Numeric 1</title>
      <path d="m 5.506849,25.9589 c 0.003,3.1389 -0.9044,3.7387 -2.6018,3.8302 l -2.6895003,0.1436 c -0.2721,0.7075 -0.3023,1.3806 0,1.8848 H 18.28385 c 0.1172,-0.5072 0.1172,-1.2313 0,-1.92 l -2.8747,-0.1436 c -1.6656,-0.083 -2.4884,-0.7124 -2.4884,-3.8044 V 0 H 8.694249 c -0.91763,1.886 -3.59896,2.7453 -7.8999403,2.8721 0.0134,0.2688 -0.0791,0.6782 -0.0458,0.9609 0.5663403,0 1.9184403,-0.02 2.9583803,0.053 0.95642,0.067 1.77771,0.3701 1.78039,2.9794 z" inkscape:connector-curvature="0" sodipodi:nodetypes="sccccccsccccsss" />
    </symbol>
    <symbol id="ms_numeric_2">
      <title>Numeric 2</title>
      <path sodipodi:nodetypes="sssssssscsssscsss" inkscape:connector-curvature="0" d="m 8.56239,20.26343 c -3.2727,2.7897 -7.3806,7.6796 -8.4932998,11.8325 -0.4328,1.615 1.2675998,2.2598 2.3228998,0.5805 3.8728,-6.1621 7.2626,-3.0047 12.3408,-0.072 2.132,1.231 4.3128,1.6146 6.3881,0 1.3069,-1.0163 3.4847,-5.2988 3.7024,-6.17 0.3628,-1.4521 -0.5057,-2.1986 -1.3066,-0.9438 -2.1777,3.4118 -2.6135,3.5569 -5.9527,1.0163 -6.1092,-4.648 -9.1097,-1.7189 -11.978,0.1437 1.6698,-2.3959 5.7346,-6.0979 10.0905,-8.4933 13.1621,-7.2393 6.7124,-14.618802 5.1541,-15.607502 -5.9088,-3.7489 -14.2615,-3.5236005 -18.8015,1.7424 -2.1447998,2.4876 -1.5967998,7.622102 2.0326,7.622102 4.8635,0 4.1378,-6.025302 2.0327,-6.750902 0.6531,-1.2341 2.6857,-3.1215 6.0249,-3.1215 1.8152,0 3.4831,2.7934 3.7753,6.5332 0.3628,4.635202 -4.4806,9.256402 -7.3322,11.687702 z" />
    </symbol>
    <symbol id="ms_numeric_3">
      <title>Numeric 3</title>
      <path d="m 1.742,4.384788 c -1.9627,2.6339 -1.0159,7.041202 2.6135,7.041202 4.8635,0 3.8472,-6.024902 1.742,-6.751002 0.6958,-1.5896 2.6131,-2.6857 4.936,-2.6857 1.8153,0 4.4995,2.1403 4.574,6.6784 0.057,3.462002 -2.4208,5.754302 -3.6299,6.193802 -1.7317,0.6293 -3.993,0.4354 -5.5898,0.4354 v 1.6698 c 1.48,0 3.9151,0 5.3721,0.508 2.5833,0.8942 4.9365,2.6861 4.9365,6.243 0,3.194 -2.6861,7.2592 -6.2434,7.2592 -2.8184,0 -4.1219,-0.6047 -5.2267,-1.3069 1.7261,-0.5458 2.674,-3.7145 0.5813,-5.8072 C 4.1624,22.21759 0,22.77389 0,26.54889 c 0,3.9197 5.517,5.9523 10.5259,5.9523 11.3246,0 14.0106,-6.1704 14.0106,-9.1464 0,-5.0815 -5.1465,-6.859 -7.5495,-7.1867 4.4995,-1.6361 9.9767,-7.523802 3.0432,-13.628102 -4.2164,-3.7126 -14.2562,-3.5664 -18.2882,1.8448 z" inkscape:connector-curvature="0" sodipodi:nodetypes="sscsssccssscsssscss" />
    </symbol>
    <symbol id="ms_numeric_4">
      <title>Numeric 4</title>
      <path inkscape:connector-curvature="0" d="m 17.09562,0 c 0.6962,0.01 1.1504,0.011 1.1504,0.049 -3.8138,4.8529 -12.3105,17.6427 -16.0156,23.6113 h 8.3516 v -8.7401 c 1.2733,-1.3799 4.5218,-5.4644 6.207,-8.928 h 1.2265 v 17.6681 h 6.2872 v 1.5409 h -6.2872 v 2.2405 c 0,3.092 0.8228,3.7214 2.4884,3.8044 l 2.8747,0.1436 c 0.1172,0.6887 0.1172,1.4128 0,1.92 H 5.31032 c -0.3023,-0.5042 -0.2721,-1.1773 0,-1.8848 l 2.6895,-0.1436 c 1.6974,-0.091 2.6018,-0.6913 2.6018,-3.8302 V 25.2012 H 0.1970197 c -0.2154,-0.5382 -0.3061,-1.536 0,-2.0546 C 5.89462,13.5123 9.26262,5.462 10.03512,0.049 10.76042,0.049 15.02702,0 17.11522,0 Z" sodipodi:nodetypes="cccccccccccsccccccscccccc" />
    </symbol>
    <symbol id="ms_numeric_5">
      <title>Numeric 5</title>
      <path d="m 11.3577,0.0011781 c -2.416,-0.034 -5.0668,0.6698 -7.0658,1.8719999 0.019,-0.3109 0.043,-0.804 0.06,-1.0465999 L 2.4155,0.8115781 1.6875,18.32328 3,18.76078 c 3.1939,-2.6896 13.75,-3.7188 13.75,6 0,5.375 -3.9688,7.8125 -6.3125,7.8125 -2.6875,0 -4.5467,-0.8279 -5.0937,-1.375 1.25,-0.5 1.6874,-1.625 1.6874,-3.3438 0,-1.6562 -1.3436,-3.3437 -3.9687,-3.3437 -1.75,0 -3.0625,1.875 -3.0625,3.5625 0,2.5938 3.4063,6.25 11.625,6.25 4.9375,0 12.9375,-3.3125 12.9375,-10.4375 0,-6.8891 -8.1769,-9.5625 -12.3125,-9.5625 -2.9816,0 -7.0597,0.7235 -8.5,2.5 -0.03,-1.3231 0.1647,-7.551902 0.3836,-12.090502 4.8688,-3.5227 6.4821,1.1144 11.2941,3.8932 2.1319,1.2311 4.3133,1.614402 6.3887,0 1.3068,-1.0165 3.4835,-5.2987 3.7012,-6.1699 0.3628,-1.4521 -0.5058,-2.1980999 -1.3067,-0.9433 -2.1777,3.4118 -2.6166,3.5624 -5.9511,1.0156 C 15.9466,0.7615781 13.6023,0.0327781 11.3574,9.780603e-4 Z" inkscape:connector-curvature="0" sodipodi:nodetypes="ccccccsscssssssccccccccc" />
    </symbol>
    <symbol id="ms_numeric_6">
      <title>Numeric 6</title>
      <path sodipodi:nodetypes="scsssssccsccsscccssssssscs" inkscape:connector-curvature="0" d="m 12.3771,1.2671 c 0.9353,-0.2506 1.9275,0 2.9901,0.6199 -0.2456,0.1879 -0.4701,0.4117 -0.6656,0.6705 -1.1657,1.5418 -0.8609,3.7368 0.6811,4.9025 1.5418,1.1659 3.7369,0.8609 4.9026,-0.6809 C 21.4511,5.2371 21.115,3.0822 19.6042,1.8764 18.071,0.6528 15.2376,0 12.377,0 10.47,0 8.7963,0.4079 7.3562,1.2236 6.1107,1.8063 4.8652,2.8406 3.6197,4.3263 1.2065,7.2979 0,11.3911 0,16.6059 c 0,5.1565 1.2455,9.1478 3.7365,11.9737 1.1288,1.3401 2.6466,2.4617 4.5538,3.3648 1.2844,0.5244 2.6467,0.7866 4.0867,0.7865 3.5971,1e-4 11.6515,-2.3259 11.6514,-11.2973 0,-4.5078 -4.4997,-9.6474 -11.2254,-9.2366 -2.392,0.1461 -3.9331,0.8397 -5.5241,1.7236 -0.0336,0.3572 -0.48454,1.0857 -0.13261,1.5468 1.37,-0.7955 2.8588,-1.4142 4.71491,-1.4142 3.5797,0 5.7363,3.9963 5.7363,7.3651 0,7.4311 -2.0967,9.9565 -5.1762,9.9565 -1.9674,0 -3.2762,-0.8415 -4.2451,-2.4456 C 6.7359,26.5445 5.6512,22.4326 5.6511,16.6059 5.6512,11.2746 6.4652,7.4492 7.4275,5.1128 7.9291,3.8949 8.9742,2.9247 9.8612,2.2288 10.6819,1.5846 11.5522,1.4883 12.377,1.2672 Z" />
    </symbol>
    <symbol id="ms_numeric_7">
      <title>Numeric 7</title>
      <path d="m 3.605,6.5668 c 0.7769,1.7385 1.7438,3.0138 3.0139,3.0138 1.933,0 2.9171,-0.9734 2.8906,-2.9062 C 9.4815,4.646 6.1955,3.3041 4.7752,5.6431 L 3.965,2.5699 c 0,0 16.309,0.029 16.7763,0 -3.2126,3.7001 -9.6365,11.6226 -12.4066,16.7907 -2.3115,4.3135 -2.8434,8.0813 -2.8434,8.8968 0,1.933 1.567,3.5 3.5,3.5 1.933,0 3.5,-1.567 3.5,-3.5 0,-13.0197 4.9959,-18.3986 10.4634,-25.5065 L 22.9207,0 H 0 c 1.3828,1.1025 2.5793,4.2715 3.605,6.5668 z" inkscape:connector-curvature="0" sodipodi:nodetypes="ssscccsssscccs" />
    </symbol>
    <symbol id="ms_numeric_8">
      <title>Numeric 8</title>
      <path sodipodi:nodetypes="ssssssccssssssssccsss" inkscape:connector-curvature="0" d="m 1.6699,7.3727 c 0,3.4412 2.0431,6.3148 3.4771,7.3988 1.7684,1.3364 9.0908,6.2463 10.8657,7.4414 1.5246,1.0261 4.1378,2.6082 4.1378,5.1719 0,2.307 -2.9503,4.7221 -7.3315,4.7221 -5.1001,0 -8.6384,-3.2727 -8.6384,-5.9901 0,-2.5119 1.1848,-5.085 3.3392,-7.2091 C 7.1074,18.5287 6.5957,18.0857 5.8148,17.67 3.6994,18.8968 0,21.3217 0,26.0782 c 0,3.422 4.1186,7.3564 12.4985,7.3564 8.2771,0 12.6398,-4.5562 12.6398,-7.6841 0,-4.3604 -1.4646,-5.7701 -3.3445,-7.3209 -1.228,-1.0133 -9.911,-6.5498 -11.8786,-7.686 C 9.0769,10.2595 6.3069,8.5973 6.3069,5.9437 c 0,-2.397 3.3596,-4.7097 6.4395,-4.7097 2.5894,0 6.4906,1.1997 6.4906,5.6194 0,1.5972 -0.728,4.5808 -2.5693,6.0714 0.2634,0.412 1.0269,0.8772 1.5121,1.0586 C 19.6916,13.24 23.3445,10.651 23.3445,7.5496 23.3445,4.8072 20.7711,0 12.9906,0 5.1674,0 1.6699,4.1881 1.6699,7.3727 Z" />
    </symbol>
    <symbol id="ms_numeric_9">
      <title>Numeric 9</title>
      <path d="m 8.6613,30.8438 c 0.2456,-0.1879 0.4701,-0.4117 0.6656,-0.6704 1.1658,-1.5419 0.8609,-3.7369 -0.681,-4.9026 -1.5419,-1.1658 -3.7369,-0.8609 -4.9026,0.681 -1.1658,1.5419 -0.8298,3.6968 0.681,4.9026 1.5332,1.2238 4.3666,1.8766 7.2271,1.8766 1.9071,0 3.5808,-0.4079 5.0209,-1.2236 1.2455,-0.5827 2.491,-1.617 3.7365,-3.1027 2.4132,-2.9716 3.6197,-7.0648 3.6197,-12.2796 0,-5.1565 -1.2455,-9.1478 -3.7365,-11.9737 C 19.1632,2.8113 17.6453,1.6897 15.7382,0.7866 14.4538,0.2622 13.0915,0 11.6514,0 8.0544,0 0,2.326 0,11.2974 c 0,4.5078 4.4997,9.6474 11.2254,9.2366 2.3921,-0.1461 3.9332,-0.8397 5.5242,-1.7236 0.034,-0.3572 0.043,-1.4834 -0.5745,-1.4584 -1.37,0.7955 -3.3146,1.3258 -4.5078,1.3258 -3.5798,0 -5.2364,-5.942 -5.2364,-7.3652 0,-7.4311 2.0968,-9.9564 5.1763,-9.9564 1.9674,0 3.2762,0.8415 4.2451,2.4456 1.4403,2.3847 2.525,6.4967 2.525,12.3233 0,5.3314 -0.814,9.1567 -1.7763,11.4931 -0.5016,1.2179 -1.5467,2.1881 -2.4337,2.8841 -0.8208,0.6441 -1.6911,0.7404 -2.5159,0.9614 -0.9353,0.2506 -1.9275,0 -2.9901,-0.6199 z" inkscape:connector-curvature="0" sodipodi:nodetypes="csssssccsccsscccssssssssc" />
    </symbol>
    <symbol id="ms_note_parts_a">
      <title>note parts A</title>
      <path sodipodi:nodetypes="ssssssssssss" inkscape:connector-curvature="0" d="m 13.62708,0.0017216 c -2.018,0.038 -4.169704,0.4656 -6.208204,1.3266004 -5.9301,2.505 -8.6568,7.6633 -6.8852996,11.856998 1.7715996,4.1938 7.3705996,5.8352 13.3007036,3.3302 5.9301,-2.5051 9.9458,-8.207998 8.1742,-12.401698 -1.1625,-2.7519 -4.5287,-4.1703004 -8.3814,-4.1121004 z m 2.8421,3.1237004 c 1.5823,0 2.7212,0.4237 3.2314,1.1894 1.2483,1.8743 -1.5139,5.2944 -6.1695,7.639198 -4.655604,2.3448 -9.441604,2.7261 -10.689904,0.8523 -1.2483,-1.8743 1.5138,-5.294398 6.1695,-7.639198 2.572504,-1.2956 5.319204,-2.0473 7.458504,-2.0417 z" />
    </symbol>
    <symbol id="ms_note_parts_b">
      <title>note parts B</title>
      <path d="M 13.83436,16.51584 C 7.904255,19.02044 2.305155,17.37944 0.5335551,13.18564 -1.237945,8.991944 1.488955,3.833644 7.419055,1.328644 c 5.930005,-2.5051 12.817705,-1.4079001 14.589205,2.7859 1.7715,4.1937 -2.2438,9.896196 -8.1739,12.401296 z" inkscape:connector-curvature="0" sodipodi:nodetypes="sssss" />
    </symbol>
    <symbol id="ms_note_parts_c">
      <title>note parts C</title>
      <path d="M 0,0 V 59.4769 H 1.6696 V 0.4354 Z" inkscape:connector-curvature="0" sodipodi:nodetypes="ccccc" />
    </symbol>
    <symbol id="ms_note_parts_d">
      <title>note parts D</title>
      <path d="M 0,0 V 59.4769 H 1.6696 V 19.3367 c 3.022,0.488 5.8843,2.0999 8.0481,4.3105 4.1306,4.2202 6.8282,10.6201 5.5537,17.7293 -0.9187,5.1246 -2.5568,8.3489 -4.2012,12.4221 l 1.1805,-0.1247 C 14.6145,48.3285 18.5435,40.7657 17.5192,32.8356 16.5698,25.4848 11.4478,20.3651 8.118,16.208 4.6737,11.9081 2.0947,9.0999 1.46,0.0768 Z" inkscape:connector-curvature="0" sodipodi:nodetypes="ccccssccsscc" />
    </symbol>
    <symbol id="ms_note_parts_e">
      <title>note parts E</title>
      <path sodipodi:nodetypes="ccccssccsscc" inkscape:connector-curvature="0" d="m 0,0.0246 v 48.669 H 1.6696 V 16.846 c 2.5916,1.8826 6.0361,3.9598 8.5615,5.8658 3.509,2.6487 5.8757,5.057 6.8402,9.2643 0.8452,3.6869 0.038,9.586 -2.4972,15.0591 h 0.9912 c 2.1845,-4.7683 3.58,-7.9 3.2118,-14.5213 C 18.4082,25.8786 13.2571,20.0465 7.8668,14.8618 5.5073,12.5918 1.6696,7.4128 1.6696,0 Z" />
    </symbol>
    <symbol id="ms_note_parts_f">
      <title>note parts F</title>
      <path d="M 16.4552,41.0942 C 19.7563,30.8275 18.573,24.2051 8.5927,12.898 6.4262,10.4435 1.6696,8.1388 1.6696,0 H 0 V 21.6694 H 1.6696 V 13.503 c 2.882,1.8463 6.7965,4.673 8.8882,7.1845 4.044,4.8551 7.0549,8.1599 5.0803,19.0544 z" inkscape:connector-curvature="0" sodipodi:nodetypes="cscccccscc" />
    </symbol>
    <symbol id="ms_note_parts_g">
      <title>note parts G</title>
      <path sodipodi:nodetypes="ccccccccc" inkscape:connector-curvature="0" d="m 49.9997,5.884 v 53.6643 h 1.6697 V 0 H 0 V 59.5483 H 1.6696 V 5.884 Z" />
    </symbol>
    <symbol id="ms_note_parts_h">
      <title>note parts H</title>
      <path sodipodi:nodetypes="ccccc" inkscape:connector-curvature="0" d="M 0,0 V 3.8838 H 49.6693 V 0 Z" />
    </symbol>
  </defs>
  <sodipodi:namedview id="base" pagecolor="#ffffff" bordercolor="#666666" borderopacity="1.0" inkscape:pageopacity="1" inkscape:pageshadow="2" inkscape:zoom="1" inkscape:cx="608.054" inkscape:cy="473.0753" inkscape:document-units="px" inkscape:current-layer="svg42602" showgrid="false" inkscape:pagecheckerboard="true" borderlayer="true" inkscape:showpageshadow="true" units="px" showguides="false" inkscape:lockguides="false" inkscape:snap-bbox="true" inkscape:snap-center="false" inkscape:bbox-nodes="true" inkscape:object-nodes="true" inkscape:snap-intersection-paths="true" inkscape:snap-smooth-nodes="false" inkscape:snap-nodes="true" inkscape:snap-object-midpoints="true" inkscape:snap-bbox-midpoints="true" inkscape:snap-to-guides="false" inkscape:snap-bbox-edge-midpoints="false" inkscape:snap-others="false" inkscape:snap-midpoints="false" inkscape:bbox-paths="false" inkscape:snap-global="false" inkscape:object-paths="false" inkscape:snap-grids="true" inkscape:snap-page="true" />
  <metadata>
    <rdf:RDF>
      <cc:Work rdf:about="">
        <dc:format>image/svg+xml</dc:format>
        <dc:type rdf:resource="http://purl.org/dc/dcmitype/StillImage" />
        <dc:title>Musical Symbols</dc:title>
      </cc:Work>
    </rdf:RDF>
  </metadata>
  <rect style="fill:url(#pattern26183);stroke-width:0" width="1100" height="770.0002" x="50.00001" y="6.061274e-006" sodipodi:insensitive="true" />
  <text xml:space="preserve" style="font-weight:bold;font-size:40px;line-height:25px;font-family:serif;-inkscape-font-specification:'serif Bold';text-anchor:middle;fill:#454545;stroke-width:2" x="599.4219" y="63.94112" sodipodi:insensitive="true"><tspan sodipodi:role="line" x="599.4219" y="63.94112">Musical symbols - SVG Symbol set</tspan></text>
  <text xml:space="preserve" style="font-size:14px;line-height:10.9312553px;font-family:sans-serif;-inkscape-font-specification:sans-serif;fill:#808080;stroke-width:8;stroke-linecap:round;stroke-linejoin:round" x="645.1763" y="326.6295" sodipodi:insensitive="true"><tspan sodipodi:role="line" x="645.1763" y="326.6295">note's parts</tspan></text>
  <text xml:space="preserve" style="font-size:14px;line-height:25px;font-family:sans-serif;-inkscape-font-specification:sans-serif;fill:#808080;stroke-width:8;stroke-linecap:round;stroke-linejoin:round" x="961.1017" y="882.2721" sodipodi:insensitive="true"><tspan sodipodi:role="line" x="961.1017" y="882.2721">Staff for &quot;Pattern&quot; -&gt;</tspan></text>
  <text xml:space="preserve" style="font-size:14px;line-height:20px;font-family:sans-serif;-inkscape-font-specification:sans-serif;fill:#009944;stroke-width:8;stroke-linecap:round;stroke-linejoin:round" x="464.7113" y="768.2355" sodipodi:insensitive="true"><tspan sodipodi:role="line" x="464.7113" y="768.2355" style="font-weight:bold;-inkscape-font-specification:'sans-serif Bold'">USES:</tspan><tspan sodipodi:role="line" x="464.7113" y="788.2355">1.Copy this SVG to &quot;symbols/&quot; directory.</tspan><tspan sodipodi:role="line" x="464.7113" y="808.2355">  (ex:%USER%/AppData/Roaming/inkscape/symbols/)</tspan><tspan sodipodi:role="line" x="464.7113" y="828.2355">2.Restart &quot;Inkscape&quot;.</tspan><tspan sodipodi:role="line" x="464.7113" y="848.2355">3.display Symbols dialog. (Shift + Ctrl + Y)</tspan><tspan sodipodi:role="line" x="464.7113" y="868.2355">4.Choose &quot;Musical symbols&quot; on dropdown.</tspan><tspan sodipodi:role="line" x="464.7113" y="888.2355">5.Drag and drop Symbol to inkscape's view.</tspan></text>
  <g>
    <use transform="translate(643,349)" xlink:href="#ms_note_parts_a" />
    <use transform="translate(704.66,349)" xlink:href="#ms_note_parts_b" />
    <use transform="translate(776.7002,299)" xlink:href="#ms_note_parts_c" />
    <use transform="translate(830.3519,298)" xlink:href="#ms_note_parts_d" />
    <use transform="translate(891.4369,302)" xlink:href="#ms_note_parts_e" />
    <use transform="translate(953.4621,297)" xlink:href="#ms_note_parts_f" />
    <use transform="translate(998.34,300)" xlink:href="#ms_note_parts_g" />
    <use transform="translate(1061,317)" xlink:href="#ms_note_parts_h" />
    <use transform="translate(74.6038,91.337)" xlink:href="#ms_g_clef" />
    <use transform="translate(2.2249,280.4713)" xlink:href="#ms_f_clef" />
    <use transform="translate(-18.27431,461.444)" xlink:href="#ms_c_clef" />
    <use transform="translate(14.5,111)" xlink:href="#ms_brace" />
    <use transform="translate(23.13363,-154.1399)" xlink:href="#ms_bracket" />
    <use transform="translate(1076.897,110.2244)" xlink:href="#ms_double_bar_line" />
    <use transform="translate(1072.298,661.0003)" xlink:href="#ms_final_bar_line" />
    <use transform="translate(588.2926,477.5398)" xlink:href="#ms_repeat_sign_a" />
    <use transform="translate(1126.165,477.3101)" xlink:href="#ms_repeat_sign_b" />
    <use transform="translate(593.0555,-533.2443)" xlink:href="#ms_bar_line" />
    <use transform="translate(1128,718.3393)" xlink:href="#ms_staff_for_pattern" />
    <use transform="translate(1076,202.9192)" xlink:href="#staff" />
    <use transform="translate(827.5012,294.4135)" xlink:href="#ms_staff_with_bar_line" />
    <use transform="translate(591.0051,223.9134)" xlink:href="#ms_volta_bracket" />
    <use transform="translate(75.8996,29.7665)" xlink:href="#ms_common_time" />
    <use transform="translate(77.8992,210.1137)" xlink:href="#ms_cut_time" />
    <use transform="translate(383.5945,142.0174)" xlink:href="#ms_flat" />
    <use transform="translate(460.5657,148.5994)" xlink:href="#ms_sharp" />
    <use transform="translate(543.3103,153.6068)" xlink:href="#ms_natural" />
    <use transform="translate(922.5073,166.5899)" xlink:href="#ms_double_sharp" />
    <use transform="translate(192.42,164.1318)" xlink:href="#ms_note_w" />
    <use transform="translate(268.9264,146.2328)" xlink:href="#ms_note_1" />
    <use transform="translate(326.4328,75.2384)" xlink:href="#ms_note_2" />
    <use transform="translate(403.9391,110.7374)" xlink:href="#ms_note_4" />
    <use transform="translate(481.4454,111.2374)" xlink:href="#ms_note_8" />
    <use transform="translate(558.9518,109.3847)" xlink:href="#ms_note_16" />
    <use transform="translate(636.4582,121.8857)" xlink:href="#ms_note_32" />
    <use transform="translate(625.4436,201.1691)" xlink:href="#ms_scale_bar" />
    <use transform="translate(352.2334,131.7334)" xlink:href="#ms_dot_of_note" />
    <use transform="translate(713.9645,129.5538)" xlink:href="#ms_note_2r" />
    <use transform="translate(791.4709,138.7462)" xlink:href="#ms_note_4r" />
    <use transform="translate(868.9773,118.9473)" xlink:href="#ms_note_8r" />
    <use transform="translate(946.4836,163.6484)" xlink:href="#ms_note_16r" />
    <use transform="translate(1023.99,127.864)" xlink:href="#ms_note_32r" />
    <use transform="translate(181.271,311.957)" xlink:href="#ms_rest_w" />
    <use transform="translate(242.5766,328.9691)" xlink:href="#ms_rest_1_2" />
    <use xlink:href="#ms_rest_1_2" transform="translate(303.8822,321.4691)" />
    <use transform="translate(368.727,299.4016)" xlink:href="#ms_rest_4" />
    <use transform="translate(429.3829,313.3785)" xlink:href="#ms_rest_8" />
    <use transform="translate(488.7423,295.8956)" xlink:href="#ms_rest_16" />
    <use transform="translate(546.7785,296.586)" xlink:href="#ms_rest_32" />
    <use transform="matrix(1.241281,0,0,1.592537,487.202,187.6432)" xlink:href="#ms_tie_b" />
    <use transform="matrix(1.269668,0.1277373,0,1,717.7714,111.5932)" xlink:href="#ms_tie_t" />
    <use transform="translate(183.7908,452.2023)" xlink:href="#ms_beamed_notes_8a" />
    <use transform="translate(291.7918,434.9523)" xlink:href="#ms_beamed_notes_8b" />
    <use transform="translate(399.7917,452.4533)" xlink:href="#ms_beamed_notes_8c" />
    <use transform="translate(511.5418,495.2023)" xlink:href="#ms_beamed_notes_16ar" />
    <use transform="translate(619.5418,513.9527)" xlink:href="#ms_beamed_notes_16br" />
    <use transform="translate(727.5419,496.4527)" xlink:href="#ms_beamed_notes_16cr" />
    <use transform="translate(839.291,443.2023)" xlink:href="#ms_beamed_notes_32a" />
    <use transform="translate(947.291,432.9523)" xlink:href="#ms_beamed_notes_32b" />
    <use transform="translate(1055.291,442.4523)" xlink:href="#ms_beamed_notes_32c" />
    <use transform="translate(109.8486,514.3451)" xlink:href="#ms_numeric_4" />
    <use transform="translate(111.2318,480.7494)" xlink:href="#ms_numeric_3" />
    <use transform="translate(604.9858,233.6345)" xlink:href="#ms_numeric_9" />
    <use transform="translate(105.4309,698.2827)" xlink:href="#ms_numeric_8" />
    <use transform="translate(108.1988,661.8384)" xlink:href="#ms_numeric_5" />
    <use transform="translate(632.5227,233.1213)" xlink:href="#ms_numeric_7" />
    <use transform="translate(660.9858,232.6345)" xlink:href="#ms_numeric_6" />
    <use transform="translate(690.5459,232.1618)" xlink:href="#ms_numeric_2" />
    <use transform="translate(721.8141,234.0912)" xlink:href="#ms_numeric_1" />
    <use transform="translate(747.9317,233.6338)" xlink:href="#ms_numeric_0" />
    <use transform="translate(555.8115,460.2155)" xlink:href="#ms_accent" />
    <use transform="translate(618.6786,465.5436)" xlink:href="#ms_tenuto" />
    <use transform="translate(661.8884,436.6614)" xlink:href="#ms_marcato" />
    <use transform="translate(727.1588,450.5331)" xlink:href="#ms_stopped_note" />
    <use transform="translate(771.353,441.9976)" xlink:href="#ms_snap_pizzicato" />
    <use transform="translate(323.0415,234.9285)" xlink:href="#ms_segno" />
    <use transform="translate(854.7502,555.8753)" xlink:href="#ms_coda" />
    <use transform="translate(189.7916,697.2023)" xlink:href="#ms_beamed_notes_8ar" />
    <use transform="translate(293.4167,706.9527)" xlink:href="#ms_beamed_notes_8br" />
    <use transform="translate(399.6131,688.4527)" xlink:href="#ms_beamed_notes_8cr" />
    <use transform="translate(509.5596,633.2023)" xlink:href="#ms_beamed_notes_16a" />
    <use transform="translate(615.7559,642.9523)" xlink:href="#ms_beamed_notes_16b" />
    <use transform="translate(721.9524,616.4523)" xlink:href="#ms_beamed_notes_16c" />
    <use transform="translate(831.8982,689.2017)" xlink:href="#ms_beamed_notes_32ar" />
    <use transform="translate(938.0955,671.0167)" xlink:href="#ms_beamed_notes_32br" />
    <use transform="translate(1044.291,688.4527)" xlink:href="#ms_beamed_notes_32cr" />
    <use transform="translate(192,637)" xlink:href="#ms_open_note" />
    <use transform="translate(231.7519,627.5762)" xlink:href="#ms_fermata" />
    <use transform="translate(294.0156,623.1387)" xlink:href="#ms_up_bow" />
    <use transform="translate(345,635)" xlink:href="#ms_down_bow" />
    <use inkscape:transform-center-y="1.237437" inkscape:transform-center-x="-0.8838833" transform="translate(521.0427,459.4784)" xlink:href="#ms_staccatissimo" />
  </g>
</svg>
